<svg xmlns="http://www.w3.org/2000/svg" width="1600" height="1200" viewBox="0 0 1600 1200">
<style>
    .title { font-family: Inter, Arial, sans-serif; font-size: 30px; font-weight: 800; fill: #25363B; }
    .h2 { font-family: Inter, Arial, sans-serif; font-size: 22px; font-weight: 800; fill: #25363B; }
    .h3 { font-family: Inter, Arial, sans-serif; font-size: 18px; font-weight: 700; fill: #25363B; }
    .label { font-family: Inter, Arial, sans-serif; font-size: 13px; font-weight: 700; fill: #25363B; }
    .body { font-family: Inter, Arial, sans-serif; font-size: 14px; font-weight: 500; fill: #25363B; }
    .small { font-family: Inter, Arial, sans-serif; font-size: 12px; font-weight: 500; fill: #6B7C82; }
    .tiny { font-family: Inter, Arial, sans-serif; font-size: 11px; font-weight: 500; fill: #6B7C82; }
    .chip { font-family: Inter, Arial, sans-serif; font-size: 12px; font-weight: 700; fill: #25363B; }
    .button { font-family: Inter, Arial, sans-serif; font-size: 14px; font-weight: 700; fill: #2D6D67; }
    .buttonLight { font-family: Inter, Arial, sans-serif; font-size: 14px; font-weight: 700; fill: #25363B; }
    .whiteBtn { font-family: Inter, Arial, sans-serif; font-size: 14px; font-weight: 700; fill: white; }
    .num { font-family: Inter, Arial, sans-serif; font-size: 28px; font-weight: 800; fill: #25363B; }
    .center { dominant-baseline: middle; text-anchor: middle; }
</style>
<defs>
    <linearGradient id="gradPrimary" x1="0" y1="0" x2="1" y2="1">
      <stop offset="0%" stop-color="#DBF0EC"/>
      <stop offset="100%" stop-color="#82D1C6"/>
    </linearGradient>
    <linearGradient id="gradPeach" x1="0" y1="0" x2="1" y2="1">
      <stop offset="0%" stop-color="#FCEFE9"/>
      <stop offset="100%" stop-color="#F3D5CA"/>
    </linearGradient>
    <linearGradient id="gradLav" x1="0" y1="0" x2="1" y2="1">
      <stop offset="0%" stop-color="#F6F3FD"/>
      <stop offset="100%" stop-color="#DCD3F7"/>
    </linearGradient>
    <linearGradient id="gradYellow" x1="0" y1="0" x2="1" y2="1">
      <stop offset="0%" stop-color="#FFF8E5"/>
      <stop offset="100%" stop-color="#F1DF9F"/>
    </linearGradient>
    <filter id="shadow" x="-20%" y="-20%" width="140%" height="150%">
      <feDropShadow dx="0" dy="8" stdDeviation="12" flood-color="#B9CCC7" flood-opacity="0.22"/>
    </filter>
    <filter id="soft" x="-20%" y="-20%" width="140%" height="150%">
      <feDropShadow dx="0" dy="3" stdDeviation="6" flood-color="#B9CCC7" flood-opacity="0.16"/>
    </filter>
</defs>
<title>Green Valley UI Kit</title><rect x="0" y="0" width="1600" height="1200" fill="#F7FAFA" rx="0" ry="0"/><text x="48" y="70" class="title" text-anchor="start">Green Valley UI Kit</text><text x="48" y="98" class="small" text-anchor="start">Soft complementary system for clinic mobile and admin dashboard</text><rect x="48" y="132" width="1504" height="220" fill="white" stroke="#DCE7E4" stroke-width="1" rx="30" ry="30" filter="url(#shadow)"/><text x="78" y="176" class="h3" text-anchor="start">Palette</text><rect x="78" y="212" width="140" height="86" fill="#82D1C6" stroke="#DCE7E4" stroke-width="1" rx="20" ry="20"/><text x="78" y="324" class="small" text-anchor="start">Primary Mint</text><text x="78" y="344" class="tiny" text-anchor="start">#82D1C6</text><rect x="262" y="212" width="140" height="86" fill="#DBF0EC" stroke="#DCE7E4" stroke-width="1" rx="20" ry="20"/><text x="262" y="324" class="small" text-anchor="start">Soft Mint</text><text x="262" y="344" class="tiny" text-anchor="start">#DBF0EC</text><rect x="446" y="212" width="140" height="86" fill="#F3D5CA" stroke="#DCE7E4" stroke-width="1" rx="20" ry="20"/><text x="446" y="324" class="small" text-anchor="start">Peach</text><text x="446" y="344" class="tiny" text-anchor="start">#F3D5CA</text><rect x="630" y="212" width="140" height="86" fill="#DCD3F7" stroke="#DCE7E4" stroke-width="1" rx="20" ry="20"/><text x="630" y="324" class="small" text-anchor="start">Lavender</text><text x="630" y="344" class="tiny" text-anchor="start">#DCD3F7</text><rect x="814" y="212" width="140" height="86" fill="#F1DF9F" stroke="#DCE7E4" stroke-width="1" rx="20" ry="20"/><text x="814" y="324" class="small" text-anchor="start">Butter</text><text x="814" y="344" class="tiny" text-anchor="start">#F1DF9F</text><rect x="998" y="212" width="140" height="86" fill="#CDE6D1" stroke="#DCE7E4" stroke-width="1" rx="20" ry="20"/><text x="998" y="324" class="small" text-anchor="start">Success</text><text x="998" y="344" class="tiny" text-anchor="start">#CDE6D1</text><rect x="1182" y="212" width="140" height="86" fill="#F1C8C6" stroke="#DCE7E4" stroke-width="1" rx="20" ry="20"/><text x="1182" y="324" class="small" text-anchor="start">Danger</text><text x="1182" y="344" class="tiny" text-anchor="start">#F1C8C6</text><rect x="1366" y="212" width="140" height="86" fill="#25363B" stroke="#DCE7E4" stroke-width="1" rx="20" ry="20"/><text x="1366" y="324" class="small" text-anchor="start">Text</text><text x="1366" y="344" class="tiny" text-anchor="start">#25363B</text><rect x="48" y="380" width="720" height="360" fill="white" stroke="#DCE7E4" stroke-width="1" rx="30" ry="30" filter="url(#shadow)"/><text x="78" y="424" class="h3" text-anchor="start">Buttons &amp; Fields</text><rect x="78" y="466" width="180" height="44" fill="url(#gradPrimary)" stroke="#82D1C6" stroke-width="1" rx="16" ry="16" filter="url(#soft)"/><text x="168.0" y="494" class="button" text-anchor="middle">Primary action</text><rect x="278" y="466" width="180" height="44" fill="url(#gradPeach)" stroke="#DCE7E4" stroke-width="1" rx="16" ry="16"/><text x="368.0" y="494" class="buttonLight" text-anchor="middle">Secondary action</text><rect x="478" y="466" width="180" height="44" fill="#2D6D67" stroke="#2D6D67" stroke-width="1" rx="16" ry="16" filter="url(#soft)"/><text x="568.0" y="494" class="whiteBtn" text-anchor="middle">Dark action</text><rect x="78" y="526" width="180" height="44" fill="white" stroke="#DCE7E4" stroke-width="1" rx="16" ry="16"/><text x="168.0" y="554" class="buttonLight" text-anchor="middle">Plain button</text><text x="78" y="602" class="label" text-anchor="start">Input field</text><rect x="78" y="612" width="280" height="56" fill="white" stroke="#DCE7E4" stroke-width="1" rx="16" ry="16"/><text x="96" y="645.0" class="small" text-anchor="start">Placeholder value</text><text x="382" y="602" class="label" text-anchor="start">Search</text><rect x="382" y="612" width="280" height="56" fill="white" stroke="#DCE7E4" stroke-width="1" rx="16" ry="16"/><circle cx="404" cy="640.0" r="8" fill="none" stroke="#6B7C82" stroke-width="1"/><line x1="410" y1="646.0" x2="414" y2="650.0" stroke="#6B7C82" stroke-width="2" stroke-linecap="round"/><text x="424" y="645.0" class="small" text-anchor="start">Search here</text><rect x="78" y="694" width="90" height="32" fill="#DBF0EC" stroke="#DCE7E4" stroke-width="1" rx="16" ry="16"/><text x="123.0" y="714" class="chip" text-anchor="middle">Mint</text><rect x="176" y="694" width="90" height="32" fill="#FCEFE9" stroke="#DCE7E4" stroke-width="1" rx="16" ry="16"/><text x="221.0" y="714" class="chip" text-anchor="middle">Peach</text><rect x="274" y="694" width="96" height="32" fill="#F6F3FD" stroke="#DCE7E4" stroke-width="1" rx="16" ry="16"/><text x="322.0" y="714" class="chip" text-anchor="middle">Lavender</text><rect x="382" y="694" width="98" height="28" rx="14" ry="14" fill="#CDE6D1" stroke="#DCE7E4" stroke-width="1"/><text x="431" y="712" class="chip" text-anchor="middle" fill="#25363B">Completed</text><rect x="492" y="694" width="98" height="28" rx="14" ry="14" fill="#F1DF9F" stroke="#DCE7E4" stroke-width="1"/><text x="541" y="712" class="chip" text-anchor="middle" fill="#25363B">Pending</text><rect x="602" y="694" width="98" height="28" rx="14" ry="14" fill="#F1C8C6" stroke="#DCE7E4" stroke-width="1"/><text x="651" y="712" class="chip" text-anchor="middle" fill="#25363B">Cancelled</text><rect x="800" y="380" width="752" height="360" fill="white" stroke="#DCE7E4" stroke-width="1" rx="30" ry="30" filter="url(#shadow)"/><text x="830" y="424" class="h3" text-anchor="start">Cards &amp; Data</text><rect x="830" y="454" width="210" height="118" fill="url(#gradPrimary)" stroke="#DCE7E4" stroke-width="1" rx="24" ry="24" filter="url(#soft)"/><circle cx="998" cy="488" r="18" fill="white" stroke="#DCE7E4" stroke-width="1"/><text x="856" y="510" class="num" text-anchor="start">27</text><text x="856" y="538" class="body" text-anchor="start">Today appointments</text><circle cx="998" cy="488" r="8" fill="#82D1C6"/><rect x="1054" y="454" width="210" height="118" fill="url(#gradPeach)" stroke="#DCE7E4" stroke-width="1" rx="24" ry="24" filter="url(#soft)"/><circle cx="1222" cy="488" r="18" fill="white" stroke="#DCE7E4" stroke-width="1"/><text x="1080" y="510" class="num" text-anchor="start">182</text><text x="1080" y="538" class="body" text-anchor="start">Active patients</text><circle cx="1222" cy="488" r="8" fill="#F3D5CA"/><rect x="1278" y="454" width="210" height="118" fill="url(#gradLav)" stroke="#DCE7E4" stroke-width="1" rx="24" ry="24" filter="url(#soft)"/><circle cx="1446" cy="488" r="18" fill="white" stroke="#DCE7E4" stroke-width="1"/><text x="1304" y="510" class="num" text-anchor="start">8</text><text x="1304" y="538" class="body" text-anchor="start">Doctors on duty</text><circle cx="1446" cy="488" r="8" fill="#DCD3F7"/><rect x="830" y="596" width="658" height="116" fill="white" stroke="#DCE7E4" stroke-width="1" rx="22" ry="22" filter="url(#soft)"/><text x="854" y="632" class="h3" text-anchor="start">Appointments snapshot</text><rect x="850" y="654" width="618" height="42" fill="#F8FCFB" stroke="#DCE7E4" stroke-width="1" rx="14" ry="14"/><text x="864" y="680" class="label" text-anchor="start">Time</text><line x1="1044.6666666666667" y1="654" x2="1044.6666666666667" y2="688" stroke="#DCE7E4" stroke-width="1" stroke-linecap="round"/><text x="1060.6666666666667" y="680" class="label" text-anchor="start">Patient</text><line x1="1241.3333333333335" y1="654" x2="1241.3333333333335" y2="688" stroke="#DCE7E4" stroke-width="1" stroke-linecap="round"/><text x="1257.3333333333335" y="680" class="label" text-anchor="start">Status</text><rect x="48" y="772" width="1504" height="380" fill="white" stroke="#DCE7E4" stroke-width="1" rx="30" ry="30" filter="url(#shadow)"/><text x="78" y="816" class="h3" text-anchor="start">Layout system</text><rect x="78" y="852" width="260" height="260" fill="#EEF6F5" stroke="#DCE7E4" stroke-width="1" rx="26" ry="26"/><rect x="108" y="882" width="200" height="68" fill="url(#gradPrimary)" stroke="#DCE7E4" stroke-width="1" rx="20" ry="20"/><rect x="108" y="972" width="156" height="18" fill="white" stroke="#DCE7E4" stroke-width="1" rx="9" ry="9"/><rect x="108" y="1000" width="156" height="18" fill="white" stroke="#DCE7E4" stroke-width="1" rx="9" ry="9"/><rect x="108" y="1028" width="156" height="18" fill="white" stroke="#DCE7E4" stroke-width="1" rx="9" ry="9"/><rect x="108" y="1056" width="156" height="18" fill="white" stroke="#DCE7E4" stroke-width="1" rx="9" ry="9"/><rect x="108" y="1084" width="156" height="18" fill="white" stroke="#DCE7E4" stroke-width="1" rx="9" ry="9"/><rect x="374" y="852" width="1120" height="86" fill="white" stroke="#DCE7E4" stroke-width="1" rx="24" ry="24"/><text x="404" y="860" class="label" text-anchor="start"></text><rect x="404" y="870" width="340" height="50" fill="white" stroke="#DCE7E4" stroke-width="1" rx="16" ry="16"/><circle cx="426" cy="895.0" r="8" fill="none" stroke="#6B7C82" stroke-width="1"/><line x1="432" y1="901.0" x2="436" y2="905.0" stroke="#6B7C82" stroke-width="2" stroke-linecap="round"/><text x="446" y="900.0" class="small" text-anchor="start">Search the system</text><rect x="374" y="964" width="1120" height="148" fill="#F8FCFB" stroke="#DCE7E4" stroke-width="1" rx="24" ry="24"/><text x="404" y="1002" class="body" text-anchor="start">12-column content area with 24px corners, 24–32px gutters, and soft shadows.</text><text x="404" y="1034" class="small" text-anchor="start">This page is included so Figma import gives you a reusable visual reference for rebuilding components.</text></svg>