<svg xmlns="http://www.w3.org/2000/svg" width="430" height="932" viewBox="0 0 430 932">
<style>
    .title { font-family: Inter, Arial, sans-serif; font-size: 30px; font-weight: 800; fill: #0F2340; }
    .h2 { font-family: Inter, Arial, sans-serif; font-size: 22px; font-weight: 800; fill: #0F2340; }
    .h3 { font-family: Inter, Arial, sans-serif; font-size: 18px; font-weight: 700; fill: #0F2340; }
    .label { font-family: Inter, Arial, sans-serif; font-size: 13px; font-weight: 700; fill: #0F2340; }
    .body { font-family: Inter, Arial, sans-serif; font-size: 14px; font-weight: 500; fill: #0F2340; }
    .small { font-family: Inter, Arial, sans-serif; font-size: 12px; font-weight: 500; fill: #6E5D56; }
    .tiny { font-family: Inter, Arial, sans-serif; font-size: 11px; font-weight: 500; fill: #6E5D56; }
    .chip { font-family: Inter, Arial, sans-serif; font-size: 12px; font-weight: 700; fill: #0F2340; }
    .button { font-family: Inter, Arial, sans-serif; font-size: 14px; font-weight: 700; fill: #0F2340; }
    .buttonLight { font-family: Inter, Arial, sans-serif; font-size: 14px; font-weight: 700; fill: #0F2340; }
    .whiteBtn { font-family: Inter, Arial, sans-serif; font-size: 14px; font-weight: 700; fill: white; }
    .num { font-family: Inter, Arial, sans-serif; font-size: 28px; font-weight: 800; fill: #0F2340; }
    .center { dominant-baseline: middle; text-anchor: middle; }
</style>
<defs>
    <linearGradient id="gradPrimary" x1="0" y1="0" x2="1" y2="1">
      <stop offset="0%" stop-color="#4A3E38"/>
      <stop offset="100%" stop-color="#0F2340"/>
    </linearGradient>
    <linearGradient id="gradPeach" x1="0" y1="0" x2="1" y2="1">
      <stop offset="0%" stop-color="#CDB4A8"/>
      <stop offset="100%" stop-color="#B79C90"/>
    </linearGradient>
    <linearGradient id="gradLav" x1="0" y1="0" x2="1" y2="1">
      <stop offset="0%" stop-color="#F7EEE9"/>
      <stop offset="100%" stop-color="#E7C9BA"/>
    </linearGradient>
    <linearGradient id="gradYellow" x1="0" y1="0" x2="1" y2="1">
      <stop offset="0%" stop-color="#FFF8E5"/>
      <stop offset="100%" stop-color="#D3B8A9"/>
    </linearGradient>
    <filter id="shadow" x="-20%" y="-20%" width="140%" height="150%">
      <feDropShadow dx="0" dy="8" stdDeviation="12" flood-color="#B9CCC7" flood-opacity="0.22"/>
    </filter>
    <filter id="soft" x="-20%" y="-20%" width="140%" height="150%">
      <feDropShadow dx="0" dy="3" stdDeviation="6" flood-color="#B9CCC7" flood-opacity="0.16"/>
    </filter>
</defs>
<title></title><rect x="0" y="0" width="430" height="932" fill="#F7EFEA" rx="0" ry="0"/><rect x="30" y="18" width="370" height="892" fill="#203238" rx="44" ry="44" filter="url(#shadow)"/><rect x="46" y="36" width="338" height="856" fill="#F7EEE9" rx="34" ry="34"/><rect x="162" y="54" width="106" height="16" fill="#18282C" rx="8" ry="8"/><text x="78" y="126" class="h2" text-anchor="start">Pharmacy</text><text x="78" y="150" class="small" text-anchor="start">Search medicines and essentials</text><text x="62" y="164" class="label" text-anchor="start"></text><rect x="62" y="174" width="306" height="52" fill="white" stroke="#DCE7E4" stroke-width="1" rx="16" ry="16"/><circle cx="84" cy="200.0" r="8" fill="none" stroke="#6E5D56" stroke-width="1"/><line x1="90" y1="206.0" x2="94" y2="210.0" stroke="#6E5D56" stroke-width="2" stroke-linecap="round"/><text x="104" y="205.0" class="small" text-anchor="start">Search medicine, brand or category</text><rect x="62" y="238" width="94" height="32" fill="#4A3E38" stroke="#DCE7E4" stroke-width="1" rx="16" ry="16"/><text x="109.0" y="258" class="chip" text-anchor="middle">Pain relief</text><rect x="164" y="238" width="104" height="32" fill="#CDB4A8" stroke="#DCE7E4" stroke-width="1" rx="16" ry="16"/><text x="216.0" y="258" class="chip" text-anchor="middle">Supplements</text><rect x="276" y="238" width="92" height="32" fill="#F7EEE9" stroke="#DCE7E4" stroke-width="1" rx="16" ry="16"/><text x="322.0" y="258" class="chip" text-anchor="middle">Baby care</text><rect x="62" y="288" width="306" height="434" fill="white" stroke="#DCE7E4" stroke-width="1" rx="24" ry="24" filter="url(#soft)"/><text x="80" y="318" class="label" text-anchor="start">Quick categories</text><rect x="82" y="338" width="64" height="98" fill="white" stroke="#DCE7E4" stroke-width="1" rx="18" ry="18" filter="url(#soft)"/><rect x="98" y="354" width="32" height="32" fill="url(#gradPrimary)" stroke="#DCE7E4" stroke-width="1" rx="10" ry="10"/><text x="114" y="408" class="tiny" text-anchor="middle">Pain</text><text x="114" y="424" class="tiny" text-anchor="middle">relief</text><rect x="184" y="338" width="64" height="98" fill="white" stroke="#DCE7E4" stroke-width="1" rx="18" ry="18" filter="url(#soft)"/><rect x="200" y="354" width="32" height="32" fill="url(#gradPeach)" stroke="#DCE7E4" stroke-width="1" rx="10" ry="10"/><text x="216" y="408" class="tiny" text-anchor="middle">Vitamins</text><rect x="286" y="338" width="64" height="98" fill="white" stroke="#DCE7E4" stroke-width="1" rx="18" ry="18" filter="url(#soft)"/><rect x="302" y="354" width="32" height="32" fill="url(#gradLav)" stroke="#DCE7E4" stroke-width="1" rx="10" ry="10"/><text x="318" y="408" class="tiny" text-anchor="middle">Mother</text><text x="318" y="424" class="tiny" text-anchor="middle">care</text><rect x="82" y="474" width="64" height="98" fill="white" stroke="#DCE7E4" stroke-width="1" rx="18" ry="18" filter="url(#soft)"/><rect x="98" y="490" width="32" height="32" fill="url(#gradPrimary)" stroke="#DCE7E4" stroke-width="1" rx="10" ry="10"/><text x="114" y="544" class="tiny" text-anchor="middle">Baby</text><text x="114" y="560" class="tiny" text-anchor="middle">care</text><rect x="184" y="474" width="64" height="98" fill="white" stroke="#DCE7E4" stroke-width="1" rx="18" ry="18" filter="url(#soft)"/><rect x="200" y="490" width="32" height="32" fill="url(#gradPeach)" stroke="#DCE7E4" stroke-width="1" rx="10" ry="10"/><text x="216" y="544" class="tiny" text-anchor="middle">Skin</text><text x="216" y="560" class="tiny" text-anchor="middle">care</text><rect x="286" y="474" width="64" height="98" fill="white" stroke="#DCE7E4" stroke-width="1" rx="18" ry="18" filter="url(#soft)"/><rect x="302" y="490" width="32" height="32" fill="url(#gradLav)" stroke="#DCE7E4" stroke-width="1" rx="10" ry="10"/><text x="318" y="544" class="tiny" text-anchor="middle">First</text><text x="318" y="560" class="tiny" text-anchor="middle">aid</text><rect x="82" y="744" width="266" height="44" fill="url(#gradPrimary)" stroke="#0F2340" stroke-width="1" rx="16" ry="16" filter="url(#soft)"/><text x="215.0" y="772" class="button" text-anchor="middle">Browse inventory</text><rect x="72" y="816" width="286" height="56" fill="white" stroke="#DCE7E4" stroke-width="1" rx="28" ry="28" filter="url(#soft)"/><circle cx="90" cy="844" r="14" fill="none" stroke="#DCE7E4" stroke-width="1"/><text x="90" y="866" class="tiny" text-anchor="middle">Home</text><circle cx="165" cy="844" r="14" fill="none" stroke="#DCE7E4" stroke-width="1"/><text x="165" y="866" class="tiny" text-anchor="middle">Schedule</text><circle cx="245" cy="844" r="18" fill="#4A3E38" stroke="#DCE7E4" stroke-width="1"/><text x="245" y="866" class="tiny" text-anchor="middle">Pharmacy</text><circle cx="320" cy="844" r="14" fill="none" stroke="#DCE7E4" stroke-width="1"/><text x="320" y="866" class="tiny" text-anchor="middle">Profile</text></svg>
