<svg xmlns="http://www.w3.org/2000/svg" width="430" height="932" viewBox="0 0 430 932">
<style>
    .title { font-family: Inter, Arial, sans-serif; font-size: 30px; font-weight: 800; fill: #25363B; }
    .h2 { font-family: Inter, Arial, sans-serif; font-size: 22px; font-weight: 800; fill: #25363B; }
    .h3 { font-family: Inter, Arial, sans-serif; font-size: 18px; font-weight: 700; fill: #25363B; }
    .label { font-family: Inter, Arial, sans-serif; font-size: 13px; font-weight: 700; fill: #25363B; }
    .body { font-family: Inter, Arial, sans-serif; font-size: 14px; font-weight: 500; fill: #25363B; }
    .small { font-family: Inter, Arial, sans-serif; font-size: 12px; font-weight: 500; fill: #6B7C82; }
    .tiny { font-family: Inter, Arial, sans-serif; font-size: 11px; font-weight: 500; fill: #6B7C82; }
    .chip { font-family: Inter, Arial, sans-serif; font-size: 12px; font-weight: 700; fill: #25363B; }
    .button { font-family: Inter, Arial, sans-serif; font-size: 14px; font-weight: 700; fill: #2D6D67; }
    .buttonLight { font-family: Inter, Arial, sans-serif; font-size: 14px; font-weight: 700; fill: #25363B; }
    .whiteBtn { font-family: Inter, Arial, sans-serif; font-size: 14px; font-weight: 700; fill: white; }
    .num { font-family: Inter, Arial, sans-serif; font-size: 28px; font-weight: 800; fill: #25363B; }
    .center { dominant-baseline: middle; text-anchor: middle; }
</style>
<defs>
    <linearGradient id="gradPrimary" x1="0" y1="0" x2="1" y2="1">
      <stop offset="0%" stop-color="#DBF0EC"/>
      <stop offset="100%" stop-color="#82D1C6"/>
    </linearGradient>
    <linearGradient id="gradPeach" x1="0" y1="0" x2="1" y2="1">
      <stop offset="0%" stop-color="#FCEFE9"/>
      <stop offset="100%" stop-color="#F3D5CA"/>
    </linearGradient>
    <linearGradient id="gradLav" x1="0" y1="0" x2="1" y2="1">
      <stop offset="0%" stop-color="#F6F3FD"/>
      <stop offset="100%" stop-color="#DCD3F7"/>
    </linearGradient>
    <linearGradient id="gradYellow" x1="0" y1="0" x2="1" y2="1">
      <stop offset="0%" stop-color="#FFF8E5"/>
      <stop offset="100%" stop-color="#F1DF9F"/>
    </linearGradient>
    <filter id="shadow" x="-20%" y="-20%" width="140%" height="150%">
      <feDropShadow dx="0" dy="8" stdDeviation="12" flood-color="#B9CCC7" flood-opacity="0.22"/>
    </filter>
    <filter id="soft" x="-20%" y="-20%" width="140%" height="150%">
      <feDropShadow dx="0" dy="3" stdDeviation="6" flood-color="#B9CCC7" flood-opacity="0.16"/>
    </filter>
</defs>
<title></title><rect x="0" y="0" width="430" height="932" fill="#F7FAFA" rx="0" ry="0"/><rect x="30" y="18" width="370" height="892" fill="#203238" rx="44" ry="44" filter="url(#shadow)"/><rect x="46" y="36" width="338" height="856" fill="#FBFBFA" rx="34" ry="34"/><rect x="162" y="54" width="106" height="16" fill="#18282C" rx="8" ry="8"/><text x="78" y="126" class="h2" text-anchor="start">My Appointments</text><text x="78" y="150" class="small" text-anchor="start">Upcoming and visit history</text><rect x="62" y="174" width="72" height="32" fill="#DBF0EC" stroke="#DCE7E4" stroke-width="1" rx="16" ry="16"/><text x="98.0" y="194" class="chip" text-anchor="middle">All</text><rect x="144" y="174" width="102" height="32" fill="white" stroke="#DCE7E4" stroke-width="1" rx="16" ry="16"/><text x="195.0" y="194" class="chip" text-anchor="middle">Completed</text><rect x="256" y="174" width="96" height="32" fill="#FCEFE9" stroke="#DCE7E4" stroke-width="1" rx="16" ry="16"/><text x="304.0" y="194" class="chip" text-anchor="middle">Pending</text><rect x="62" y="226" width="306" height="116" fill="white" stroke="#DCE7E4" stroke-width="1" rx="24" ry="24" filter="url(#soft)"/><text x="84" y="260" class="label" text-anchor="start">21 Jun 2026</text><text x="84" y="288" class="body" text-anchor="start">Dr. Kato · General consultation</text><text x="84" y="316" class="small" text-anchor="start">08:30 AM</text><rect x="282" y="248" width="98" height="28" rx="14" ry="14" fill="#F1DF9F" stroke="#DCE7E4" stroke-width="1"/><text x="331" y="266" class="chip" text-anchor="middle" fill="#25363B">Pending</text><rect x="84" y="318" width="100" height="44" fill="white" stroke="#DCE7E4" stroke-width="1" rx="16" ry="16"/><text x="134.0" y="346" class="buttonLight" text-anchor="middle">View</text><rect x="194" y="318" width="138" height="44" fill="url(#gradPeach)" stroke="#DCE7E4" stroke-width="1" rx="16" ry="16"/><text x="263.0" y="346" class="buttonLight" text-anchor="middle">Reschedule</text><rect x="62" y="360" width="306" height="116" fill="white" stroke="#DCE7E4" stroke-width="1" rx="24" ry="24" filter="url(#soft)"/><text x="84" y="394" class="label" text-anchor="start">14 Jun 2026</text><text x="84" y="422" class="body" text-anchor="start">Dr. Mugisha · Dental review</text><text x="84" y="450" class="small" text-anchor="start">10:00 AM</text><rect x="282" y="382" width="98" height="28" rx="14" ry="14" fill="#CDE6D1" stroke="#DCE7E4" stroke-width="1"/><text x="331" y="400" class="chip" text-anchor="middle" fill="#25363B">Completed</text><rect x="84" y="452" width="100" height="44" fill="white" stroke="#DCE7E4" stroke-width="1" rx="16" ry="16"/><text x="134.0" y="480" class="buttonLight" text-anchor="middle">View</text><rect x="194" y="452" width="138" height="44" fill="url(#gradPeach)" stroke="#DCE7E4" stroke-width="1" rx="16" ry="16"/><text x="263.0" y="480" class="buttonLight" text-anchor="middle">Reschedule</text><rect x="62" y="494" width="306" height="116" fill="white" stroke="#DCE7E4" stroke-width="1" rx="24" ry="24" filter="url(#soft)"/><text x="84" y="528" class="label" text-anchor="start">08 Jun 2026</text><text x="84" y="556" class="body" text-anchor="start">Dr. Nalwoga · Child check-up</text><text x="84" y="584" class="small" text-anchor="start">03:00 PM</text><rect x="282" y="516" width="98" height="28" rx="14" ry="14" fill="#F1C8C6" stroke="#DCE7E4" stroke-width="1"/><text x="331" y="534" class="chip" text-anchor="middle" fill="#25363B">Cancelled</text><rect x="84" y="586" width="100" height="44" fill="white" stroke="#DCE7E4" stroke-width="1" rx="16" ry="16"/><text x="134.0" y="614" class="buttonLight" text-anchor="middle">View</text><rect x="194" y="586" width="138" height="44" fill="url(#gradPeach)" stroke="#DCE7E4" stroke-width="1" rx="16" ry="16"/><text x="263.0" y="614" class="buttonLight" text-anchor="middle">Reschedule</text><rect x="62" y="628" width="306" height="126" fill="white" stroke="#DCE7E4" stroke-width="1" rx="24" ry="24" filter="url(#soft)"/><text x="80" y="658" class="label" text-anchor="start">Need help?</text><text x="80" y="676" class="tiny" text-anchor="start">Call the clinic or request a reschedule from this page.</text><rect x="84" y="712" width="120" height="44" fill="url(#gradPrimary)" stroke="#82D1C6" stroke-width="1" rx="16" ry="16" filter="url(#soft)"/><text x="144.0" y="740" class="button" text-anchor="middle">Call clinic</text><rect x="214" y="712" width="118" height="44" fill="url(#gradPeach)" stroke="#DCE7E4" stroke-width="1" rx="16" ry="16"/><text x="273.0" y="740" class="buttonLight" text-anchor="middle">Message desk</text><rect x="72" y="816" width="286" height="56" fill="white" stroke="#DCE7E4" stroke-width="1" rx="28" ry="28" filter="url(#soft)"/><circle cx="90" cy="844" r="14" fill="none" stroke="#DCE7E4" stroke-width="1"/><text x="90" y="866" class="tiny" text-anchor="middle">Home</text><circle cx="165" cy="844" r="18" fill="#DBF0EC" stroke="#DCE7E4" stroke-width="1"/><text x="165" y="866" class="tiny" text-anchor="middle">Schedule</text><circle cx="245" cy="844" r="14" fill="none" stroke="#DCE7E4" stroke-width="1"/><text x="245" y="866" class="tiny" text-anchor="middle">Pharmacy</text><circle cx="320" cy="844" r="14" fill="none" stroke="#DCE7E4" stroke-width="1"/><text x="320" y="866" class="tiny" text-anchor="middle">Profile</text></svg>