<svg xmlns="http://www.w3.org/2000/svg" width="1440" height="1024" viewBox="0 0 1440 1024">
<style>
    .title { font-family: Inter, Arial, sans-serif; font-size: 30px; font-weight: 800; fill: #25363B; }
    .h2 { font-family: Inter, Arial, sans-serif; font-size: 22px; font-weight: 800; fill: #25363B; }
    .h3 { font-family: Inter, Arial, sans-serif; font-size: 18px; font-weight: 700; fill: #25363B; }
    .label { font-family: Inter, Arial, sans-serif; font-size: 13px; font-weight: 700; fill: #25363B; }
    .body { font-family: Inter, Arial, sans-serif; font-size: 14px; font-weight: 500; fill: #25363B; }
    .small { font-family: Inter, Arial, sans-serif; font-size: 12px; font-weight: 500; fill: #6B7C82; }
    .tiny { font-family: Inter, Arial, sans-serif; font-size: 11px; font-weight: 500; fill: #6B7C82; }
    .chip { font-family: Inter, Arial, sans-serif; font-size: 12px; font-weight: 700; fill: #25363B; }
    .button { font-family: Inter, Arial, sans-serif; font-size: 14px; font-weight: 700; fill: #2D6D67; }
    .buttonLight { font-family: Inter, Arial, sans-serif; font-size: 14px; font-weight: 700; fill: #25363B; }
    .whiteBtn { font-family: Inter, Arial, sans-serif; font-size: 14px; font-weight: 700; fill: white; }
    .num { font-family: Inter, Arial, sans-serif; font-size: 28px; font-weight: 800; fill: #25363B; }
    .center { dominant-baseline: middle; text-anchor: middle; }
</style>
<defs>
    <linearGradient id="gradPrimary" x1="0" y1="0" x2="1" y2="1">
      <stop offset="0%" stop-color="#DBF0EC"/>
      <stop offset="100%" stop-color="#82D1C6"/>
    </linearGradient>
    <linearGradient id="gradPeach" x1="0" y1="0" x2="1" y2="1">
      <stop offset="0%" stop-color="#FCEFE9"/>
      <stop offset="100%" stop-color="#F3D5CA"/>
    </linearGradient>
    <linearGradient id="gradLav" x1="0" y1="0" x2="1" y2="1">
      <stop offset="0%" stop-color="#F6F3FD"/>
      <stop offset="100%" stop-color="#DCD3F7"/>
    </linearGradient>
    <linearGradient id="gradYellow" x1="0" y1="0" x2="1" y2="1">
      <stop offset="0%" stop-color="#FFF8E5"/>
      <stop offset="100%" stop-color="#F1DF9F"/>
    </linearGradient>
    <filter id="shadow" x="-20%" y="-20%" width="140%" height="150%">
      <feDropShadow dx="0" dy="8" stdDeviation="12" flood-color="#B9CCC7" flood-opacity="0.22"/>
    </filter>
    <filter id="soft" x="-20%" y="-20%" width="140%" height="150%">
      <feDropShadow dx="0" dy="3" stdDeviation="6" flood-color="#B9CCC7" flood-opacity="0.16"/>
    </filter>
</defs>
<title>Create / Edit Appointment</title><rect x="0" y="0" width="1440" height="1024" fill="#F7FAFA" rx="0" ry="0"/><rect x="24" y="24" width="1392" height="976" fill="#FFFFFF" stroke="#DCE7E4" stroke-width="1" rx="30" ry="30" filter="url(#shadow)"/><rect x="24" y="24" width="258" height="976" fill="#EEF6F5" stroke="#DCE7E4" stroke-width="1" rx="30" ry="30"/><rect x="40" y="42" width="226" height="86" fill="url(#gradPrimary)" stroke="#DCE7E4" stroke-width="1" rx="24" ry="24"/><circle cx="74" cy="85" r="22" fill="white" stroke="#DCE7E4" stroke-width="1"/><text x="106" y="78" class="h3" text-anchor="start">Green Valley</text><text x="106" y="100" class="small" text-anchor="start">Clinic management system</text><rect x="62" y="158" width="4" height="12" fill="#6B7C82" rx="2" ry="2"/><rect x="69" y="154" width="4" height="16" fill="#6B7C82" rx="2" ry="2"/><rect x="76" y="161" width="4" height="9" fill="#6B7C82" rx="2" ry="2"/><text x="92" y="172" class="body" fill="#6B7C82">Dashboard</text><rect x="44" y="210" width="218" height="44" fill="white" stroke="#DCE7E4" stroke-width="1" rx="16" ry="16"/><rect x="62" y="217" width="18" height="15" fill="none" stroke="#2D6D67" stroke-width="1" rx="4" ry="4"/><line x1="67" y1="214" x2="67" y2="220" stroke="#2D6D67" stroke-width="1" stroke-linecap="round"/><line x1="75" y1="214" x2="75" y2="220" stroke="#2D6D67" stroke-width="1" stroke-linecap="round"/><line x1="62" y1="221" x2="80" y2="221" stroke="#2D6D67" stroke-width="1" stroke-linecap="round"/><text x="92" y="234" class="body" fill="#2D6D67">Appointments</text><rect x="62" y="277" width="16" height="18" fill="none" stroke="#6B7C82" stroke-width="1" rx="4" ry="4"/><line x1="66" y1="283" x2="74" y2="283" stroke="#6B7C82" stroke-width="1" stroke-linecap="round"/><line x1="66" y1="287" x2="74" y2="287" stroke="#6B7C82" stroke-width="1" stroke-linecap="round"/><line x1="66" y1="291" x2="72" y2="291" stroke="#6B7C82" stroke-width="1" stroke-linecap="round"/><text x="92" y="296" class="body" fill="#6B7C82">Patient Records</text><circle cx="68" cy="345" r="4" fill="none" stroke="#6B7C82" stroke-width="1"/><circle cx="76" cy="347" r="3.5" fill="none" stroke="#6B7C82" stroke-width="1"/><line x1="63" y1="354" x2="73" y2="354" stroke="#6B7C82" stroke-width="2" stroke-linecap="round"/><line x1="72" y1="355" x2="80" y2="355" stroke="#6B7C82" stroke-width="2" stroke-linecap="round"/><text x="92" y="358" class="body" fill="#6B7C82">Doctors</text><rect x="62" y="403" width="18" height="15" fill="none" stroke="#6B7C82" stroke-width="1" rx="4" ry="4"/><line x1="67" y1="400" x2="67" y2="406" stroke="#6B7C82" stroke-width="1" stroke-linecap="round"/><line x1="75" y1="400" x2="75" y2="406" stroke="#6B7C82" stroke-width="1" stroke-linecap="round"/><line x1="62" y1="407" x2="80" y2="407" stroke="#6B7C82" stroke-width="1" stroke-linecap="round"/><text x="92" y="420" class="body" fill="#6B7C82">Schedule</text><rect x="62" y="468" width="4" height="12" fill="#6B7C82" rx="2" ry="2"/><rect x="69" y="464" width="4" height="16" fill="#6B7C82" rx="2" ry="2"/><rect x="76" y="471" width="4" height="9" fill="#6B7C82" rx="2" ry="2"/><text x="92" y="482" class="body" fill="#6B7C82">Reports</text><rect x="62" y="525" width="16" height="18" fill="none" stroke="#6B7C82" stroke-width="1" rx="4" ry="4"/><line x1="66" y1="531" x2="74" y2="531" stroke="#6B7C82" stroke-width="1" stroke-linecap="round"/><line x1="66" y1="535" x2="74" y2="535" stroke="#6B7C82" stroke-width="1" stroke-linecap="round"/><line x1="66" y1="539" x2="72" y2="539" stroke="#6B7C82" stroke-width="1" stroke-linecap="round"/><text x="92" y="544" class="body" fill="#6B7C82">Inventory</text><rect x="62" y="587" width="16" height="18" fill="none" stroke="#6B7C82" stroke-width="1" rx="4" ry="4"/><line x1="66" y1="593" x2="74" y2="593" stroke="#6B7C82" stroke-width="1" stroke-linecap="round"/><line x1="66" y1="597" x2="74" y2="597" stroke="#6B7C82" stroke-width="1" stroke-linecap="round"/><line x1="66" y1="601" x2="72" y2="601" stroke="#6B7C82" stroke-width="1" stroke-linecap="round"/><text x="92" y="606" class="body" fill="#6B7C82">Messages</text><rect x="44" y="844" width="218" height="118" fill="url(#gradLav)" stroke="#DCE7E4" stroke-width="1" rx="24" ry="24"/><text x="64" y="880" class="label" text-anchor="start">Need help?</text><text x="64" y="904" class="small" text-anchor="start">System guide and support</text><rect x="64" y="920" width="128" height="44" fill="white" stroke="#DCE7E4" stroke-width="1" rx="16" ry="16"/><text x="128.0" y="948" class="buttonLight" text-anchor="middle">Open guide</text><rect x="302" y="40" width="1088" height="82" fill="white" stroke="#DCE7E4" stroke-width="1" rx="24" ry="24"/><text x="328" y="48" class="label" text-anchor="start"></text><rect x="328" y="58" width="360" height="48" fill="white" stroke="#DCE7E4" stroke-width="1" rx="16" ry="16"/><circle cx="350" cy="82.0" r="8" fill="none" stroke="#6B7C82" stroke-width="1"/><line x1="356" y1="88.0" x2="360" y2="92.0" stroke="#6B7C82" stroke-width="2" stroke-linecap="round"/><text x="370" y="87.0" class="small" text-anchor="start">Search patients, doctors, appointments</text><rect x="1174" y="66" width="98" height="28" rx="14" ry="14" fill="#CDE6D1" stroke="#DCE7E4" stroke-width="1"/><text x="1223" y="84" class="chip" text-anchor="middle" fill="#25363B">Live</text><circle cx="1296" cy="81" r="20" fill="url(#gradPeach)" stroke="#DCE7E4" stroke-width="1"/><circle cx="1342" cy="81" r="20" fill="url(#gradLav)" stroke="#DCE7E4" stroke-width="1"/><rect x="1290" y="140" width="100" height="0" fill="none" stroke="none" stroke-width="1" rx="18" ry="18"/><rect x="134" y="0" width="0" height="0" fill="none" rx="18" ry="18"/><rect x="1218" y="58" width="0" height="0" fill="none" rx="18" ry="18"/><rect x="1252" y="58" width="124" height="46" fill="#F8FCFB" stroke="#DCE7E4" stroke-width="1" rx="20" ry="20"/><circle cx="1276" cy="81" r="14" fill="#DBF0EC" stroke="#DCE7E4" stroke-width="1"/><text x="1298" y="77" class="body" text-anchor="start">Samuel</text><text x="1298" y="95" class="tiny" text-anchor="start">Admin</text><text x="324" y="172" class="title" text-anchor="start">Create / Edit Appointment</text><text x="324" y="198" class="small" text-anchor="start">Assign a patient, doctor, room and time slot</text><rect x="324" y="228" width="560" height="546" fill="white" stroke="#DCE7E4" stroke-width="1" rx="24" ry="24" filter="url(#shadow)"/><text x="352" y="268" class="h3" text-anchor="start">Appointment details</text><text x="352" y="316" class="label" text-anchor="start">Patient name</text><rect x="352" y="326" width="240" height="56" fill="white" stroke="#DCE7E4" stroke-width="1" rx="16" ry="16"/><text x="370" y="359.0" class="small" text-anchor="start">Samuel Nuwagaba</text><text x="608" y="316" class="label" text-anchor="start">Department</text><rect x="608" y="326" width="240" height="56" fill="white" stroke="#DCE7E4" stroke-width="1" rx="16" ry="16"/><text x="626" y="359.0" class="small" text-anchor="start">General clinic</text><text x="352" y="404" class="label" text-anchor="start">Doctor</text><rect x="352" y="414" width="240" height="56" fill="white" stroke="#DCE7E4" stroke-width="1" rx="16" ry="16"/><text x="370" y="447.0" class="small" text-anchor="start">Dr. Kato</text><text x="608" y="404" class="label" text-anchor="start">Date</text><rect x="608" y="414" width="240" height="56" fill="white" stroke="#DCE7E4" stroke-width="1" rx="16" ry="16"/><rect x="624" y="433" width="18" height="15" fill="none" stroke="#6B7C82" stroke-width="1" rx="4" ry="4"/><line x1="629" y1="430" x2="629" y2="436" stroke="#6B7C82" stroke-width="1" stroke-linecap="round"/><line x1="637" y1="430" x2="637" y2="436" stroke="#6B7C82" stroke-width="1" stroke-linecap="round"/><line x1="624" y1="437" x2="642" y2="437" stroke="#6B7C82" stroke-width="1" stroke-linecap="round"/><text x="654" y="447.0" class="small" text-anchor="start">21 Jun 2026</text><text x="352" y="492" class="label" text-anchor="start">Time slot</text><rect x="352" y="502" width="240" height="56" fill="white" stroke="#DCE7E4" stroke-width="1" rx="16" ry="16"/><text x="370" y="535.0" class="small" text-anchor="start">08:30 AM</text><text x="608" y="492" class="label" text-anchor="start">Room</text><rect x="608" y="502" width="240" height="56" fill="white" stroke="#DCE7E4" stroke-width="1" rx="16" ry="16"/><text x="626" y="535.0" class="small" text-anchor="start">Consultation room 02</text><text x="352" y="590" class="label" text-anchor="start">Reason for visit</text><rect x="352" y="606" width="496" height="104" fill="#F8FCFB" stroke="#DCE7E4" stroke-width="1" rx="18" ry="18"/><text x="370" y="650" class="small" text-anchor="start">Routine consultation and review of mild symptoms.</text><rect x="352" y="730" width="168" height="44" fill="url(#gradPrimary)" stroke="#82D1C6" stroke-width="1" rx="16" ry="16" filter="url(#soft)"/><text x="436.0" y="758" class="button" text-anchor="middle">Save appointment</text><rect x="536" y="730" width="110" height="44" fill="white" stroke="#DCE7E4" stroke-width="1" rx="16" ry="16"/><text x="591.0" y="758" class="buttonLight" text-anchor="middle">Cancel</text><rect x="908" y="228" width="448" height="546" fill="white" stroke="#DCE7E4" stroke-width="1" rx="24" ry="24" filter="url(#shadow)"/><text x="936" y="268" class="h3" text-anchor="start">Doctor availability</text><rect x="936" y="320" width="392" height="50" fill="#F8FCFB" stroke="#DCE7E4" stroke-width="1" rx="16" ry="16"/><text x="956" y="351" class="body" text-anchor="start">08:00</text><rect x="1210" y="331" width="98" height="28" rx="14" ry="14" fill="#F1C8C6" stroke="#DCE7E4" stroke-width="1"/><text x="1259" y="349" class="chip" text-anchor="middle" fill="#25363B">Booked</text><rect x="936" y="380" width="392" height="50" fill="#F8FCFB" stroke="#DCE7E4" stroke-width="1" rx="16" ry="16"/><text x="956" y="411" class="body" text-anchor="start">08:30</text><rect x="1210" y="391" width="98" height="28" rx="14" ry="14" fill="#CDE6D1" stroke="#DCE7E4" stroke-width="1"/><text x="1259" y="409" class="chip" text-anchor="middle" fill="#25363B">Available</text><rect x="936" y="440" width="392" height="50" fill="#F8FCFB" stroke="#DCE7E4" stroke-width="1" rx="16" ry="16"/><text x="956" y="471" class="body" text-anchor="start">09:00</text><rect x="1210" y="451" width="98" height="28" rx="14" ry="14" fill="#CDE6D1" stroke="#DCE7E4" stroke-width="1"/><text x="1259" y="469" class="chip" text-anchor="middle" fill="#25363B">Available</text><rect x="936" y="500" width="392" height="50" fill="#F8FCFB" stroke="#DCE7E4" stroke-width="1" rx="16" ry="16"/><text x="956" y="531" class="body" text-anchor="start">09:30</text><rect x="1210" y="511" width="98" height="28" rx="14" ry="14" fill="#F1DF9F" stroke="#DCE7E4" stroke-width="1"/><text x="1259" y="529" class="chip" text-anchor="middle" fill="#25363B">Buffer</text><rect x="936" y="560" width="392" height="50" fill="#F8FCFB" stroke="#DCE7E4" stroke-width="1" rx="16" ry="16"/><text x="956" y="591" class="body" text-anchor="start">10:00</text><rect x="1210" y="571" width="98" height="28" rx="14" ry="14" fill="#CDE6D1" stroke="#DCE7E4" stroke-width="1"/><text x="1259" y="589" class="chip" text-anchor="middle" fill="#25363B">Available</text><rect x="936" y="620" width="392" height="50" fill="#F8FCFB" stroke="#DCE7E4" stroke-width="1" rx="16" ry="16"/><text x="956" y="651" class="body" text-anchor="start">10:30</text><rect x="1210" y="631" width="98" height="28" rx="14" ry="14" fill="#DCD3F7" stroke="#DCE7E4" stroke-width="1"/><text x="1259" y="649" class="chip" text-anchor="middle" fill="#25363B">Break</text><rect x="936" y="680" width="392" height="50" fill="#F8FCFB" stroke="#DCE7E4" stroke-width="1" rx="16" ry="16"/><text x="956" y="711" class="body" text-anchor="start">11:00</text><rect x="1210" y="691" width="98" height="28" rx="14" ry="14" fill="#CDE6D1" stroke="#DCE7E4" stroke-width="1"/><text x="1259" y="709" class="chip" text-anchor="middle" fill="#25363B">Available</text><rect x="936" y="752" width="392" height="82" fill="url(#gradPeach)" stroke="#DCE7E4" stroke-width="1" rx="22" ry="22" filter="url(#soft)"/><text x="956" y="784" class="label" text-anchor="start">Scheduling logic</text><text x="956" y="810" class="small" text-anchor="start">Conflict detection is active. Double bookings and closed hours are blocked.</text></svg>