<svg xmlns="http://www.w3.org/2000/svg" width="1440" height="1024" viewBox="0 0 1440 1024">
<style>
    .title { font-family: Inter, Arial, sans-serif; font-size: 30px; font-weight: 800; fill: #25363B; }
    .h2 { font-family: Inter, Arial, sans-serif; font-size: 22px; font-weight: 800; fill: #25363B; }
    .h3 { font-family: Inter, Arial, sans-serif; font-size: 18px; font-weight: 700; fill: #25363B; }
    .label { font-family: Inter, Arial, sans-serif; font-size: 13px; font-weight: 700; fill: #25363B; }
    .body { font-family: Inter, Arial, sans-serif; font-size: 14px; font-weight: 500; fill: #25363B; }
    .small { font-family: Inter, Arial, sans-serif; font-size: 12px; font-weight: 500; fill: #6B7C82; }
    .tiny { font-family: Inter, Arial, sans-serif; font-size: 11px; font-weight: 500; fill: #6B7C82; }
    .chip { font-family: Inter, Arial, sans-serif; font-size: 12px; font-weight: 700; fill: #25363B; }
    .button { font-family: Inter, Arial, sans-serif; font-size: 14px; font-weight: 700; fill: #2D6D67; }
    .buttonLight { font-family: Inter, Arial, sans-serif; font-size: 14px; font-weight: 700; fill: #25363B; }
    .whiteBtn { font-family: Inter, Arial, sans-serif; font-size: 14px; font-weight: 700; fill: white; }
    .num { font-family: Inter, Arial, sans-serif; font-size: 28px; font-weight: 800; fill: #25363B; }
    .center { dominant-baseline: middle; text-anchor: middle; }
</style>
<defs>
    <linearGradient id="gradPrimary" x1="0" y1="0" x2="1" y2="1">
      <stop offset="0%" stop-color="#DBF0EC"/>
      <stop offset="100%" stop-color="#82D1C6"/>
    </linearGradient>
    <linearGradient id="gradPeach" x1="0" y1="0" x2="1" y2="1">
      <stop offset="0%" stop-color="#FCEFE9"/>
      <stop offset="100%" stop-color="#F3D5CA"/>
    </linearGradient>
    <linearGradient id="gradLav" x1="0" y1="0" x2="1" y2="1">
      <stop offset="0%" stop-color="#F6F3FD"/>
      <stop offset="100%" stop-color="#DCD3F7"/>
    </linearGradient>
    <linearGradient id="gradYellow" x1="0" y1="0" x2="1" y2="1">
      <stop offset="0%" stop-color="#FFF8E5"/>
      <stop offset="100%" stop-color="#F1DF9F"/>
    </linearGradient>
    <filter id="shadow" x="-20%" y="-20%" width="140%" height="150%">
      <feDropShadow dx="0" dy="8" stdDeviation="12" flood-color="#B9CCC7" flood-opacity="0.22"/>
    </filter>
    <filter id="soft" x="-20%" y="-20%" width="140%" height="150%">
      <feDropShadow dx="0" dy="3" stdDeviation="6" flood-color="#B9CCC7" flood-opacity="0.16"/>
    </filter>
</defs>
<title>Patient Profile</title><rect x="0" y="0" width="1440" height="1024" fill="#F7FAFA" rx="0" ry="0"/><rect x="24" y="24" width="1392" height="976" fill="#FFFFFF" stroke="#DCE7E4" stroke-width="1" rx="30" ry="30" filter="url(#shadow)"/><rect x="24" y="24" width="258" height="976" fill="#EEF6F5" stroke="#DCE7E4" stroke-width="1" rx="30" ry="30"/><rect x="40" y="42" width="226" height="86" fill="url(#gradPrimary)" stroke="#DCE7E4" stroke-width="1" rx="24" ry="24"/><circle cx="74" cy="85" r="22" fill="white" stroke="#DCE7E4" stroke-width="1"/><text x="106" y="78" class="h3" text-anchor="start">Green Valley</text><text x="106" y="100" class="small" text-anchor="start">Clinic management system</text><rect x="62" y="158" width="4" height="12" fill="#6B7C82" rx="2" ry="2"/><rect x="69" y="154" width="4" height="16" fill="#6B7C82" rx="2" ry="2"/><rect x="76" y="161" width="4" height="9" fill="#6B7C82" rx="2" ry="2"/><text x="92" y="172" class="body" fill="#6B7C82">Dashboard</text><rect x="62" y="217" width="18" height="15" fill="none" stroke="#6B7C82" stroke-width="1" rx="4" ry="4"/><line x1="67" y1="214" x2="67" y2="220" stroke="#6B7C82" stroke-width="1" stroke-linecap="round"/><line x1="75" y1="214" x2="75" y2="220" stroke="#6B7C82" stroke-width="1" stroke-linecap="round"/><line x1="62" y1="221" x2="80" y2="221" stroke="#6B7C82" stroke-width="1" stroke-linecap="round"/><text x="92" y="234" class="body" fill="#6B7C82">Appointments</text><rect x="44" y="272" width="218" height="44" fill="white" stroke="#DCE7E4" stroke-width="1" rx="16" ry="16"/><rect x="62" y="277" width="16" height="18" fill="none" stroke="#2D6D67" stroke-width="1" rx="4" ry="4"/><line x1="66" y1="283" x2="74" y2="283" stroke="#2D6D67" stroke-width="1" stroke-linecap="round"/><line x1="66" y1="287" x2="74" y2="287" stroke="#2D6D67" stroke-width="1" stroke-linecap="round"/><line x1="66" y1="291" x2="72" y2="291" stroke="#2D6D67" stroke-width="1" stroke-linecap="round"/><text x="92" y="296" class="body" fill="#2D6D67">Patient Records</text><circle cx="68" cy="345" r="4" fill="none" stroke="#6B7C82" stroke-width="1"/><circle cx="76" cy="347" r="3.5" fill="none" stroke="#6B7C82" stroke-width="1"/><line x1="63" y1="354" x2="73" y2="354" stroke="#6B7C82" stroke-width="2" stroke-linecap="round"/><line x1="72" y1="355" x2="80" y2="355" stroke="#6B7C82" stroke-width="2" stroke-linecap="round"/><text x="92" y="358" class="body" fill="#6B7C82">Doctors</text><rect x="62" y="403" width="18" height="15" fill="none" stroke="#6B7C82" stroke-width="1" rx="4" ry="4"/><line x1="67" y1="400" x2="67" y2="406" stroke="#6B7C82" stroke-width="1" stroke-linecap="round"/><line x1="75" y1="400" x2="75" y2="406" stroke="#6B7C82" stroke-width="1" stroke-linecap="round"/><line x1="62" y1="407" x2="80" y2="407" stroke="#6B7C82" stroke-width="1" stroke-linecap="round"/><text x="92" y="420" class="body" fill="#6B7C82">Schedule</text><rect x="62" y="468" width="4" height="12" fill="#6B7C82" rx="2" ry="2"/><rect x="69" y="464" width="4" height="16" fill="#6B7C82" rx="2" ry="2"/><rect x="76" y="471" width="4" height="9" fill="#6B7C82" rx="2" ry="2"/><text x="92" y="482" class="body" fill="#6B7C82">Reports</text><rect x="62" y="525" width="16" height="18" fill="none" stroke="#6B7C82" stroke-width="1" rx="4" ry="4"/><line x1="66" y1="531" x2="74" y2="531" stroke="#6B7C82" stroke-width="1" stroke-linecap="round"/><line x1="66" y1="535" x2="74" y2="535" stroke="#6B7C82" stroke-width="1" stroke-linecap="round"/><line x1="66" y1="539" x2="72" y2="539" stroke="#6B7C82" stroke-width="1" stroke-linecap="round"/><text x="92" y="544" class="body" fill="#6B7C82">Inventory</text><rect x="62" y="587" width="16" height="18" fill="none" stroke="#6B7C82" stroke-width="1" rx="4" ry="4"/><line x1="66" y1="593" x2="74" y2="593" stroke="#6B7C82" stroke-width="1" stroke-linecap="round"/><line x1="66" y1="597" x2="74" y2="597" stroke="#6B7C82" stroke-width="1" stroke-linecap="round"/><line x1="66" y1="601" x2="72" y2="601" stroke="#6B7C82" stroke-width="1" stroke-linecap="round"/><text x="92" y="606" class="body" fill="#6B7C82">Messages</text><rect x="44" y="844" width="218" height="118" fill="url(#gradLav)" stroke="#DCE7E4" stroke-width="1" rx="24" ry="24"/><text x="64" y="880" class="label" text-anchor="start">Need help?</text><text x="64" y="904" class="small" text-anchor="start">System guide and support</text><rect x="64" y="920" width="128" height="44" fill="white" stroke="#DCE7E4" stroke-width="1" rx="16" ry="16"/><text x="128.0" y="948" class="buttonLight" text-anchor="middle">Open guide</text><rect x="302" y="40" width="1088" height="82" fill="white" stroke="#DCE7E4" stroke-width="1" rx="24" ry="24"/><text x="328" y="48" class="label" text-anchor="start"></text><rect x="328" y="58" width="360" height="48" fill="white" stroke="#DCE7E4" stroke-width="1" rx="16" ry="16"/><circle cx="350" cy="82.0" r="8" fill="none" stroke="#6B7C82" stroke-width="1"/><line x1="356" y1="88.0" x2="360" y2="92.0" stroke="#6B7C82" stroke-width="2" stroke-linecap="round"/><text x="370" y="87.0" class="small" text-anchor="start">Search patients, doctors, appointments</text><rect x="1174" y="66" width="98" height="28" rx="14" ry="14" fill="#CDE6D1" stroke="#DCE7E4" stroke-width="1"/><text x="1223" y="84" class="chip" text-anchor="middle" fill="#25363B">Live</text><circle cx="1296" cy="81" r="20" fill="url(#gradPeach)" stroke="#DCE7E4" stroke-width="1"/><circle cx="1342" cy="81" r="20" fill="url(#gradLav)" stroke="#DCE7E4" stroke-width="1"/><rect x="1290" y="140" width="100" height="0" fill="none" stroke="none" stroke-width="1" rx="18" ry="18"/><rect x="134" y="0" width="0" height="0" fill="none" rx="18" ry="18"/><rect x="1218" y="58" width="0" height="0" fill="none" rx="18" ry="18"/><rect x="1252" y="58" width="124" height="46" fill="#F8FCFB" stroke="#DCE7E4" stroke-width="1" rx="20" ry="20"/><circle cx="1276" cy="81" r="14" fill="#DBF0EC" stroke="#DCE7E4" stroke-width="1"/><text x="1298" y="77" class="body" text-anchor="start">Samuel</text><text x="1298" y="95" class="tiny" text-anchor="start">Admin</text><text x="324" y="172" class="title" text-anchor="start">Patient Profile</text><text x="324" y="198" class="small" text-anchor="start">Personal details, clinic record and consultation history</text><rect x="324" y="228" width="330" height="544" fill="white" stroke="#DCE7E4" stroke-width="1" rx="24" ry="24" filter="url(#shadow)"/><circle cx="489" cy="292" r="34" fill="url(#gradPrimary)" stroke="#DCE7E4" stroke-width="1"/><text x="489" y="300" class="label" text-anchor="middle">SN</text><text x="380" y="348" class="h3" text-anchor="start">Samuel Nuwagaba</text><text x="380" y="376" class="small" text-anchor="start">GV-PT-00842</text><rect x="520" y="344" width="98" height="28" rx="14" ry="14" fill="#CDE6D1" stroke="#DCE7E4" stroke-width="1"/><text x="569" y="362" class="chip" text-anchor="middle" fill="#25363B">Active</text><text x="360" y="430" class="small" text-anchor="start">DOB</text><text x="468" y="430" class="body" text-anchor="start">10 Mar 2002</text><text x="360" y="472" class="small" text-anchor="start">Gender</text><text x="468" y="472" class="body" text-anchor="start">Male</text><text x="360" y="514" class="small" text-anchor="start">Phone</text><text x="468" y="514" class="body" text-anchor="start">+256 7XX XXX XXX</text><text x="360" y="556" class="small" text-anchor="start">Email</text><text x="468" y="556" class="body" text-anchor="start">samuel@example.com</text><text x="360" y="598" class="small" text-anchor="start">Insurance</text><text x="468" y="598" class="body" text-anchor="start">AAR Health</text><text x="360" y="640" class="small" text-anchor="start">Address</text><text x="468" y="640" class="body" text-anchor="start">Mbarara, Uganda</text><rect x="356" y="710" width="120" height="44" fill="url(#gradPrimary)" stroke="#82D1C6" stroke-width="1" rx="16" ry="16" filter="url(#soft)"/><text x="416.0" y="738" class="button" text-anchor="middle">Book</text><rect x="488" y="710" width="120" height="44" fill="white" stroke="#DCE7E4" stroke-width="1" rx="16" ry="16"/><text x="548.0" y="738" class="buttonLight" text-anchor="middle">Edit profile</text><rect x="680" y="228" width="676" height="544" fill="white" stroke="#DCE7E4" stroke-width="1" rx="24" ry="24" filter="url(#shadow)"/><text x="708" y="268" class="h3" text-anchor="start">Consultation notes</text><rect x="708" y="308" width="620" height="110" fill="url(#gradPrimary)" stroke="#DCE7E4" stroke-width="1" rx="20" ry="20" filter="url(#soft)"/><text x="730" y="340" class="label" text-anchor="start">08 Jun 2026</text><text x="730" y="370" class="small" text-anchor="start">Routine review. Lab results stable. Follow-up in two weeks.</text><rect x="1196" y="360" width="104" height="44" fill="white" stroke="#DCE7E4" stroke-width="1" rx="16" ry="16"/><text x="1248.0" y="388" class="buttonLight" text-anchor="middle">View note</text><rect x="708" y="434" width="620" height="110" fill="url(#gradPeach)" stroke="#DCE7E4" stroke-width="1" rx="20" ry="20" filter="url(#soft)"/><text x="730" y="466" class="label" text-anchor="start">14 Jun 2026</text><text x="730" y="496" class="small" text-anchor="start">Patient reported mild discomfort. Medication adjusted after check-up.</text><rect x="1196" y="486" width="104" height="44" fill="white" stroke="#DCE7E4" stroke-width="1" rx="16" ry="16"/><text x="1248.0" y="514" class="buttonLight" text-anchor="middle">View note</text><rect x="708" y="560" width="620" height="110" fill="url(#gradLav)" stroke="#DCE7E4" stroke-width="1" rx="20" ry="20" filter="url(#soft)"/><text x="730" y="592" class="label" text-anchor="start">20 Jun 2026</text><text x="730" y="622" class="small" text-anchor="start">Vitals stable. No immediate concern. Continue current plan.</text><rect x="1196" y="612" width="104" height="44" fill="white" stroke="#DCE7E4" stroke-width="1" rx="16" ry="16"/><text x="1248.0" y="640" class="buttonLight" text-anchor="middle">View note</text><rect x="708" y="710" width="166" height="44" fill="url(#gradPeach)" stroke="#DCE7E4" stroke-width="1" rx="16" ry="16"/><text x="791.0" y="738" class="buttonLight" text-anchor="middle">Add consultation</text></svg>