<svg xmlns="http://www.w3.org/2000/svg" width="1440" height="1024" viewBox="0 0 1440 1024">
<style>
    .title { font-family: Inter, Arial, sans-serif; font-size: 30px; font-weight: 800; fill: #0F2340; }
    .h2 { font-family: Inter, Arial, sans-serif; font-size: 22px; font-weight: 800; fill: #0F2340; }
    .h3 { font-family: Inter, Arial, sans-serif; font-size: 18px; font-weight: 700; fill: #0F2340; }
    .label { font-family: Inter, Arial, sans-serif; font-size: 13px; font-weight: 700; fill: #0F2340; }
    .body { font-family: Inter, Arial, sans-serif; font-size: 14px; font-weight: 500; fill: #0F2340; }
    .small { font-family: Inter, Arial, sans-serif; font-size: 12px; font-weight: 500; fill: #6E5D56; }
    .tiny { font-family: Inter, Arial, sans-serif; font-size: 11px; font-weight: 500; fill: #6E5D56; }
    .chip { font-family: Inter, Arial, sans-serif; font-size: 12px; font-weight: 700; fill: #0F2340; }
    .button { font-family: Inter, Arial, sans-serif; font-size: 14px; font-weight: 700; fill: #0F2340; }
    .buttonLight { font-family: Inter, Arial, sans-serif; font-size: 14px; font-weight: 700; fill: #0F2340; }
    .whiteBtn { font-family: Inter, Arial, sans-serif; font-size: 14px; font-weight: 700; fill: white; }
    .num { font-family: Inter, Arial, sans-serif; font-size: 28px; font-weight: 800; fill: #0F2340; }
    .center { dominant-baseline: middle; text-anchor: middle; }
</style>
<defs>
    <linearGradient id="gradPrimary" x1="0" y1="0" x2="1" y2="1">
      <stop offset="0%" stop-color="#4A3E38"/>
      <stop offset="100%" stop-color="#0F2340"/>
    </linearGradient>
    <linearGradient id="gradPeach" x1="0" y1="0" x2="1" y2="1">
      <stop offset="0%" stop-color="#CDB4A8"/>
      <stop offset="100%" stop-color="#B79C90"/>
    </linearGradient>
    <linearGradient id="gradLav" x1="0" y1="0" x2="1" y2="1">
      <stop offset="0%" stop-color="#F7EEE9"/>
      <stop offset="100%" stop-color="#E7C9BA"/>
    </linearGradient>
    <linearGradient id="gradYellow" x1="0" y1="0" x2="1" y2="1">
      <stop offset="0%" stop-color="#FFF8E5"/>
      <stop offset="100%" stop-color="#D3B8A9"/>
    </linearGradient>
    <filter id="shadow" x="-20%" y="-20%" width="140%" height="150%">
      <feDropShadow dx="0" dy="8" stdDeviation="12" flood-color="#B9CCC7" flood-opacity="0.22"/>
    </filter>
    <filter id="soft" x="-20%" y="-20%" width="140%" height="150%">
      <feDropShadow dx="0" dy="3" stdDeviation="6" flood-color="#B9CCC7" flood-opacity="0.16"/>
    </filter>
</defs>
<title>Reports &amp; Analytics</title><rect x="0" y="0" width="1440" height="1024" fill="#F7EFEA" rx="0" ry="0"/><rect x="24" y="24" width="1392" height="976" fill="#FFFFFF" stroke="#DCE7E4" stroke-width="1" rx="30" ry="30" filter="url(#shadow)"/><rect x="24" y="24" width="258" height="976" fill="#EFE6E2" stroke="#DCE7E4" stroke-width="1" rx="30" ry="30"/><rect x="40" y="42" width="226" height="86" fill="url(#gradPrimary)" stroke="#DCE7E4" stroke-width="1" rx="24" ry="24"/><circle cx="74" cy="85" r="22" fill="white" stroke="#DCE7E4" stroke-width="1"/><text x="106" y="78" class="h3" text-anchor="start">Green Valley</text><text x="106" y="100" class="small" text-anchor="start">Clinic management system</text><rect x="62" y="158" width="4" height="12" fill="#6E5D56" rx="2" ry="2"/><rect x="69" y="154" width="4" height="16" fill="#6E5D56" rx="2" ry="2"/><rect x="76" y="161" width="4" height="9" fill="#6E5D56" rx="2" ry="2"/><text x="92" y="172" class="body" fill="#6E5D56">Dashboard</text><rect x="62" y="217" width="18" height="15" fill="none" stroke="#6E5D56" stroke-width="1" rx="4" ry="4"/><line x1="67" y1="214" x2="67" y2="220" stroke="#6E5D56" stroke-width="1" stroke-linecap="round"/><line x1="75" y1="214" x2="75" y2="220" stroke="#6E5D56" stroke-width="1" stroke-linecap="round"/><line x1="62" y1="221" x2="80" y2="221" stroke="#6E5D56" stroke-width="1" stroke-linecap="round"/><text x="92" y="234" class="body" fill="#6E5D56">Appointments</text><rect x="62" y="277" width="16" height="18" fill="none" stroke="#6E5D56" stroke-width="1" rx="4" ry="4"/><line x1="66" y1="283" x2="74" y2="283" stroke="#6E5D56" stroke-width="1" stroke-linecap="round"/><line x1="66" y1="287" x2="74" y2="287" stroke="#6E5D56" stroke-width="1" stroke-linecap="round"/><line x1="66" y1="291" x2="72" y2="291" stroke="#6E5D56" stroke-width="1" stroke-linecap="round"/><text x="92" y="296" class="body" fill="#6E5D56">Patient Records</text><circle cx="68" cy="345" r="4" fill="none" stroke="#6E5D56" stroke-width="1"/><circle cx="76" cy="347" r="3.5" fill="none" stroke="#6E5D56" stroke-width="1"/><line x1="63" y1="354" x2="73" y2="354" stroke="#6E5D56" stroke-width="2" stroke-linecap="round"/><line x1="72" y1="355" x2="80" y2="355" stroke="#6E5D56" stroke-width="2" stroke-linecap="round"/><text x="92" y="358" class="body" fill="#6E5D56">Doctors</text><rect x="62" y="403" width="18" height="15" fill="none" stroke="#6E5D56" stroke-width="1" rx="4" ry="4"/><line x1="67" y1="400" x2="67" y2="406" stroke="#6E5D56" stroke-width="1" stroke-linecap="round"/><line x1="75" y1="400" x2="75" y2="406" stroke="#6E5D56" stroke-width="1" stroke-linecap="round"/><line x1="62" y1="407" x2="80" y2="407" stroke="#6E5D56" stroke-width="1" stroke-linecap="round"/><text x="92" y="420" class="body" fill="#6E5D56">Schedule</text><rect x="44" y="458" width="218" height="44" fill="white" stroke="#DCE7E4" stroke-width="1" rx="16" ry="16"/><rect x="62" y="468" width="4" height="12" fill="#0F2340" rx="2" ry="2"/><rect x="69" y="464" width="4" height="16" fill="#0F2340" rx="2" ry="2"/><rect x="76" y="471" width="4" height="9" fill="#0F2340" rx="2" ry="2"/><text x="92" y="482" class="body" fill="#0F2340">Reports</text><rect x="62" y="525" width="16" height="18" fill="none" stroke="#6E5D56" stroke-width="1" rx="4" ry="4"/><line x1="66" y1="531" x2="74" y2="531" stroke="#6E5D56" stroke-width="1" stroke-linecap="round"/><line x1="66" y1="535" x2="74" y2="535" stroke="#6E5D56" stroke-width="1" stroke-linecap="round"/><line x1="66" y1="539" x2="72" y2="539" stroke="#6E5D56" stroke-width="1" stroke-linecap="round"/><text x="92" y="544" class="body" fill="#6E5D56">Inventory</text><rect x="62" y="587" width="16" height="18" fill="none" stroke="#6E5D56" stroke-width="1" rx="4" ry="4"/><line x1="66" y1="593" x2="74" y2="593" stroke="#6E5D56" stroke-width="1" stroke-linecap="round"/><line x1="66" y1="597" x2="74" y2="597" stroke="#6E5D56" stroke-width="1" stroke-linecap="round"/><line x1="66" y1="601" x2="72" y2="601" stroke="#6E5D56" stroke-width="1" stroke-linecap="round"/><text x="92" y="606" class="body" fill="#6E5D56">Messages</text><rect x="44" y="844" width="218" height="118" fill="url(#gradLav)" stroke="#DCE7E4" stroke-width="1" rx="24" ry="24"/><text x="64" y="880" class="label" text-anchor="start">Need help?</text><text x="64" y="904" class="small" text-anchor="start">System guide and support</text><rect x="64" y="920" width="128" height="44" fill="white" stroke="#DCE7E4" stroke-width="1" rx="16" ry="16"/><text x="128.0" y="948" class="buttonLight" text-anchor="middle">Open guide</text><rect x="302" y="40" width="1088" height="82" fill="white" stroke="#DCE7E4" stroke-width="1" rx="24" ry="24"/><text x="328" y="48" class="label" text-anchor="start"></text><rect x="328" y="58" width="360" height="48" fill="white" stroke="#DCE7E4" stroke-width="1" rx="16" ry="16"/><circle cx="350" cy="82.0" r="8" fill="none" stroke="#6E5D56" stroke-width="1"/><line x1="356" y1="88.0" x2="360" y2="92.0" stroke="#6E5D56" stroke-width="2" stroke-linecap="round"/><text x="370" y="87.0" class="small" text-anchor="start">Search patients, doctors, appointments</text><rect x="1174" y="66" width="98" height="28" rx="14" ry="14" fill="#EFE6E2" stroke="#DCE7E4" stroke-width="1"/><text x="1223" y="84" class="chip" text-anchor="middle" fill="#0F2340">Live</text><circle cx="1296" cy="81" r="20" fill="url(#gradPeach)" stroke="#DCE7E4" stroke-width="1"/><circle cx="1342" cy="81" r="20" fill="url(#gradLav)" stroke="#DCE7E4" stroke-width="1"/><rect x="1290" y="140" width="100" height="0" fill="none" stroke="none" stroke-width="1" rx="18" ry="18"/><rect x="134" y="0" width="0" height="0" fill="none" rx="18" ry="18"/><rect x="1218" y="58" width="0" height="0" fill="none" rx="18" ry="18"/><rect x="1252" y="58" width="124" height="46" fill="#F7EEE9" stroke="#DCE7E4" stroke-width="1" rx="20" ry="20"/><circle cx="1276" cy="81" r="14" fill="#4A3E38" stroke="#DCE7E4" stroke-width="1"/><text x="1298" y="77" class="body" text-anchor="start">Samuel</text><text x="1298" y="95" class="tiny" text-anchor="start">Admin</text><text x="324" y="172" class="title" text-anchor="start">Reports &amp; Analytics</text><text x="324" y="198" class="small" text-anchor="start">Track clinic activity, outcomes and staff performance</text><rect x="324" y="226" width="104" height="32" fill="white" stroke="#DCE7E4" stroke-width="1" rx="16" ry="16"/><text x="376.0" y="246" class="chip" text-anchor="middle">All time</text><rect x="438" y="226" width="126" height="32" fill="#4A3E38" stroke="#DCE7E4" stroke-width="1" rx="16" ry="16"/><text x="501.0" y="246" class="chip" text-anchor="middle">Appointments</text><rect x="574" y="226" width="108" height="32" fill="#CDB4A8" stroke="#DCE7E4" stroke-width="1" rx="16" ry="16"/><text x="628.0" y="246" class="chip" text-anchor="middle">Revenue</text><rect x="692" y="226" width="86" height="32" fill="#F7EEE9" stroke="#DCE7E4" stroke-width="1" rx="16" ry="16"/><text x="735.0" y="246" class="chip" text-anchor="middle">Export</text><rect x="324" y="276" width="246" height="118" fill="url(#gradPrimary)" stroke="#DCE7E4" stroke-width="1" rx="24" ry="24" filter="url(#soft)"/><circle cx="528" cy="310" r="18" fill="white" stroke="#DCE7E4" stroke-width="1"/><text x="350" y="332" class="num" text-anchor="start">420</text><text x="350" y="360" class="body" text-anchor="start">Total appointments</text><circle cx="528" cy="310" r="8" fill="#0F2340"/><rect x="586" y="276" width="246" height="118" fill="url(#gradPeach)" stroke="#DCE7E4" stroke-width="1" rx="24" ry="24" filter="url(#soft)"/><circle cx="790" cy="310" r="18" fill="white" stroke="#DCE7E4" stroke-width="1"/><text x="612" y="332" class="num" text-anchor="start">318</text><text x="612" y="360" class="body" text-anchor="start">Completed</text><circle cx="790" cy="310" r="8" fill="#B79C90"/><rect x="848" y="276" width="246" height="118" fill="url(#gradLav)" stroke="#DCE7E4" stroke-width="1" rx="24" ry="24" filter="url(#soft)"/><circle cx="1052" cy="310" r="18" fill="white" stroke="#DCE7E4" stroke-width="1"/><text x="874" y="332" class="num" text-anchor="start">42</text><text x="874" y="360" class="body" text-anchor="start">Cancelled</text><circle cx="1052" cy="310" r="8" fill="#E7C9BA"/><rect x="1110" y="276" width="246" height="118" fill="url(#gradYellow)" stroke="#DCE7E4" stroke-width="1" rx="24" ry="24" filter="url(#soft)"/><circle cx="1314" cy="310" r="18" fill="white" stroke="#DCE7E4" stroke-width="1"/><text x="1136" y="332" class="num" text-anchor="start">60</text><text x="1136" y="360" class="body" text-anchor="start">No-shows</text><circle cx="1314" cy="310" r="8" fill="#D3B8A9"/><rect x="324" y="426" width="500" height="328" fill="white" stroke="#DCE7E4" stroke-width="1" rx="22" ry="22" filter="url(#soft)"/><text x="348" y="462" class="h3" text-anchor="start">Appointments by weekday</text><rect x="346" y="484" width="456" height="248" fill="#F7EEE9" stroke="#DCE7E4" stroke-width="1" rx="18" ry="18"/><rect x="386" y="624" width="32" height="82" fill="url(#gradPrimary)" stroke="#DCE7E4" stroke-width="1" rx="12" ry="12"/><text x="402" y="726" class="tiny" text-anchor="middle">Mon</text><rect x="454" y="590" width="32" height="116" fill="url(#gradPeach)" stroke="#DCE7E4" stroke-width="1" rx="12" ry="12"/><text x="470" y="726" class="tiny" text-anchor="middle">Tue</text><rect x="522" y="636" width="32" height="70" fill="url(#gradLav)" stroke="#DCE7E4" stroke-width="1" rx="12" ry="12"/><text x="538" y="726" class="tiny" text-anchor="middle">Wed</text><rect x="590" y="566" width="32" height="140" fill="url(#gradPrimary)" stroke="#DCE7E4" stroke-width="1" rx="12" ry="12"/><text x="606" y="726" class="tiny" text-anchor="middle">Thu</text><rect x="658" y="604" width="32" height="102" fill="url(#gradYellow)" stroke="#DCE7E4" stroke-width="1" rx="12" ry="12"/><text x="674" y="726" class="tiny" text-anchor="middle">Fri</text><rect x="848" y="426" width="508" height="328" fill="white" stroke="#DCE7E4" stroke-width="1" rx="22" ry="22" filter="url(#soft)"/><text x="872" y="462" class="h3" text-anchor="start">Staff performance summary</text><rect x="868" y="484" width="468" height="42" fill="#F7EEE9" stroke="#DCE7E4" stroke-width="1" rx="14" ry="14"/><text x="882" y="510" class="label" text-anchor="start">Doctor</text><line x1="1012.6666666666667" y1="484" x2="1012.6666666666667" y2="730" stroke="#DCE7E4" stroke-width="1" stroke-linecap="round"/><text x="1028.6666666666667" y="510" class="label" text-anchor="start">Completion</text><line x1="1159.3333333333335" y1="484" x2="1159.3333333333335" y2="730" stroke="#DCE7E4" stroke-width="1" stroke-linecap="round"/><text x="1175.3333333333335" y="510" class="label" text-anchor="start">Trend</text><text x="882" y="550" class="small" text-anchor="start">Dr. Kato</text><text x="1028.6666666666667" y="550" class="small" text-anchor="start">96%</text><rect x="1175.3333333333335" y="532" width="98" height="28" rx="14" ry="14" fill="#EFE6E2" stroke="#DCE7E4" stroke-width="1"/><text x="1224.3333333333335" y="550" class="chip" text-anchor="middle" fill="#0F2340">High</text><line x1="868" y1="570" x2="1336" y2="570" stroke="#DCE7E4" stroke-width="1" stroke-linecap="round"/><text x="882" y="594" class="small" text-anchor="start">Dr. Mugisha</text><text x="1028.6666666666667" y="594" class="small" text-anchor="start">92%</text><rect x="1175.3333333333335" y="576" width="98" height="28" rx="14" ry="14" fill="#0F2340" stroke="#DCE7E4" stroke-width="1"/><text x="1224.3333333333335" y="594" class="chip" text-anchor="middle" fill="#0F2340">Good</text><line x1="868" y1="614" x2="1336" y2="614" stroke="#DCE7E4" stroke-width="1" stroke-linecap="round"/><text x="882" y="638" class="small" text-anchor="start">Dr. Nalwoga</text><text x="1028.6666666666667" y="638" class="small" text-anchor="start">87%</text><rect x="1175.3333333333335" y="620" width="98" height="28" rx="14" ry="14" fill="#D3B8A9" stroke="#DCE7E4" stroke-width="1"/><text x="1224.3333333333335" y="638" class="chip" text-anchor="middle" fill="#0F2340">Watch</text><line x1="868" y1="658" x2="1336" y2="658" stroke="#DCE7E4" stroke-width="1" stroke-linecap="round"/><text x="882" y="682" class="small" text-anchor="start">Dr. Abwooli</text><text x="1028.6666666666667" y="682" class="small" text-anchor="start">95%</text><rect x="1175.3333333333335" y="664" width="98" height="28" rx="14" ry="14" fill="#EFE6E2" stroke="#DCE7E4" stroke-width="1"/><text x="1224.3333333333335" y="682" class="chip" text-anchor="middle" fill="#0F2340">High</text><rect x="324" y="782" width="1032" height="126" fill="url(#gradLav)" stroke="#DCE7E4" stroke-width="1" rx="22" ry="22" filter="url(#soft)"/><text x="344" y="814" class="label" text-anchor="start">Insight summary</text><text x="344" y="840" class="small" text-anchor="start">General consultation remains the busiest service.</text><text x="344" y="864" class="small" text-anchor="start">No-shows rose slightly on Saturdays.</text><text x="344" y="888" class="small" text-anchor="start">Dental completion rate improved after reminder messages.</text></svg>
