<svg xmlns="http://www.w3.org/2000/svg" width="1440" height="1024" viewBox="0 0 1440 1024">
<style>
    .title { font-family: Inter, Arial, sans-serif; font-size: 30px; font-weight: 800; fill: #0F2340; }
    .h2 { font-family: Inter, Arial, sans-serif; font-size: 22px; font-weight: 800; fill: #0F2340; }
    .h3 { font-family: Inter, Arial, sans-serif; font-size: 18px; font-weight: 700; fill: #0F2340; }
    .label { font-family: Inter, Arial, sans-serif; font-size: 13px; font-weight: 700; fill: #0F2340; }
    .body { font-family: Inter, Arial, sans-serif; font-size: 14px; font-weight: 500; fill: #0F2340; }
    .small { font-family: Inter, Arial, sans-serif; font-size: 12px; font-weight: 500; fill: #6E5D56; }
    .tiny { font-family: Inter, Arial, sans-serif; font-size: 11px; font-weight: 500; fill: #6E5D56; }
    .chip { font-family: Inter, Arial, sans-serif; font-size: 12px; font-weight: 700; fill: #0F2340; }
    .button { font-family: Inter, Arial, sans-serif; font-size: 14px; font-weight: 700; fill: #0F2340; }
    .buttonLight { font-family: Inter, Arial, sans-serif; font-size: 14px; font-weight: 700; fill: #0F2340; }
    .whiteBtn { font-family: Inter, Arial, sans-serif; font-size: 14px; font-weight: 700; fill: white; }
    .num { font-family: Inter, Arial, sans-serif; font-size: 28px; font-weight: 800; fill: #0F2340; }
    .center { dominant-baseline: middle; text-anchor: middle; }
</style>
<defs>
    <linearGradient id="gradPrimary" x1="0" y1="0" x2="1" y2="1">
      <stop offset="0%" stop-color="#4A3E38"/>
      <stop offset="100%" stop-color="#0F2340"/>
    </linearGradient>
    <linearGradient id="gradPeach" x1="0" y1="0" x2="1" y2="1">
      <stop offset="0%" stop-color="#CDB4A8"/>
      <stop offset="100%" stop-color="#B79C90"/>
    </linearGradient>
    <linearGradient id="gradLav" x1="0" y1="0" x2="1" y2="1">
      <stop offset="0%" stop-color="#F7EEE9"/>
      <stop offset="100%" stop-color="#E7C9BA"/>
    </linearGradient>
    <linearGradient id="gradYellow" x1="0" y1="0" x2="1" y2="1">
      <stop offset="0%" stop-color="#FFF8E5"/>
      <stop offset="100%" stop-color="#D3B8A9"/>
    </linearGradient>
    <filter id="shadow" x="-20%" y="-20%" width="140%" height="150%">
      <feDropShadow dx="0" dy="8" stdDeviation="12" flood-color="#B9CCC7" flood-opacity="0.22"/>
    </filter>
    <filter id="soft" x="-20%" y="-20%" width="140%" height="150%">
      <feDropShadow dx="0" dy="3" stdDeviation="6" flood-color="#B9CCC7" flood-opacity="0.16"/>
    </filter>
</defs>
<title>Doctors</title><rect x="0" y="0" width="1440" height="1024" fill="#F7EFEA" rx="0" ry="0"/><rect x="24" y="24" width="1392" height="976" fill="#FFFFFF" stroke="#DCE7E4" stroke-width="1" rx="30" ry="30" filter="url(#shadow)"/><rect x="24" y="24" width="258" height="976" fill="#EFE6E2" stroke="#DCE7E4" stroke-width="1" rx="30" ry="30"/><rect x="40" y="42" width="226" height="86" fill="url(#gradPrimary)" stroke="#DCE7E4" stroke-width="1" rx="24" ry="24"/><circle cx="74" cy="85" r="22" fill="white" stroke="#DCE7E4" stroke-width="1"/><text x="106" y="78" class="h3" text-anchor="start">Green Valley</text><text x="106" y="100" class="small" text-anchor="start">Clinic management system</text><rect x="62" y="158" width="4" height="12" fill="#6E5D56" rx="2" ry="2"/><rect x="69" y="154" width="4" height="16" fill="#6E5D56" rx="2" ry="2"/><rect x="76" y="161" width="4" height="9" fill="#6E5D56" rx="2" ry="2"/><text x="92" y="172" class="body" fill="#6E5D56">Dashboard</text><rect x="62" y="217" width="18" height="15" fill="none" stroke="#6E5D56" stroke-width="1" rx="4" ry="4"/><line x1="67" y1="214" x2="67" y2="220" stroke="#6E5D56" stroke-width="1" stroke-linecap="round"/><line x1="75" y1="214" x2="75" y2="220" stroke="#6E5D56" stroke-width="1" stroke-linecap="round"/><line x1="62" y1="221" x2="80" y2="221" stroke="#6E5D56" stroke-width="1" stroke-linecap="round"/><text x="92" y="234" class="body" fill="#6E5D56">Appointments</text><rect x="62" y="277" width="16" height="18" fill="none" stroke="#6E5D56" stroke-width="1" rx="4" ry="4"/><line x1="66" y1="283" x2="74" y2="283" stroke="#6E5D56" stroke-width="1" stroke-linecap="round"/><line x1="66" y1="287" x2="74" y2="287" stroke="#6E5D56" stroke-width="1" stroke-linecap="round"/><line x1="66" y1="291" x2="72" y2="291" stroke="#6E5D56" stroke-width="1" stroke-linecap="round"/><text x="92" y="296" class="body" fill="#6E5D56">Patient Records</text><rect x="44" y="334" width="218" height="44" fill="white" stroke="#DCE7E4" stroke-width="1" rx="16" ry="16"/><circle cx="68" cy="345" r="4" fill="none" stroke="#0F2340" stroke-width="1"/><circle cx="76" cy="347" r="3.5" fill="none" stroke="#0F2340" stroke-width="1"/><line x1="63" y1="354" x2="73" y2="354" stroke="#0F2340" stroke-width="2" stroke-linecap="round"/><line x1="72" y1="355" x2="80" y2="355" stroke="#0F2340" stroke-width="2" stroke-linecap="round"/><text x="92" y="358" class="body" fill="#0F2340">Doctors</text><rect x="62" y="403" width="18" height="15" fill="none" stroke="#6E5D56" stroke-width="1" rx="4" ry="4"/><line x1="67" y1="400" x2="67" y2="406" stroke="#6E5D56" stroke-width="1" stroke-linecap="round"/><line x1="75" y1="400" x2="75" y2="406" stroke="#6E5D56" stroke-width="1" stroke-linecap="round"/><line x1="62" y1="407" x2="80" y2="407" stroke="#6E5D56" stroke-width="1" stroke-linecap="round"/><text x="92" y="420" class="body" fill="#6E5D56">Schedule</text><rect x="62" y="468" width="4" height="12" fill="#6E5D56" rx="2" ry="2"/><rect x="69" y="464" width="4" height="16" fill="#6E5D56" rx="2" ry="2"/><rect x="76" y="471" width="4" height="9" fill="#6E5D56" rx="2" ry="2"/><text x="92" y="482" class="body" fill="#6E5D56">Reports</text><rect x="62" y="525" width="16" height="18" fill="none" stroke="#6E5D56" stroke-width="1" rx="4" ry="4"/><line x1="66" y1="531" x2="74" y2="531" stroke="#6E5D56" stroke-width="1" stroke-linecap="round"/><line x1="66" y1="535" x2="74" y2="535" stroke="#6E5D56" stroke-width="1" stroke-linecap="round"/><line x1="66" y1="539" x2="72" y2="539" stroke="#6E5D56" stroke-width="1" stroke-linecap="round"/><text x="92" y="544" class="body" fill="#6E5D56">Inventory</text><rect x="62" y="587" width="16" height="18" fill="none" stroke="#6E5D56" stroke-width="1" rx="4" ry="4"/><line x1="66" y1="593" x2="74" y2="593" stroke="#6E5D56" stroke-width="1" stroke-linecap="round"/><line x1="66" y1="597" x2="74" y2="597" stroke="#6E5D56" stroke-width="1" stroke-linecap="round"/><line x1="66" y1="601" x2="72" y2="601" stroke="#6E5D56" stroke-width="1" stroke-linecap="round"/><text x="92" y="606" class="body" fill="#6E5D56">Messages</text><rect x="44" y="844" width="218" height="118" fill="url(#gradLav)" stroke="#DCE7E4" stroke-width="1" rx="24" ry="24"/><text x="64" y="880" class="label" text-anchor="start">Need help?</text><text x="64" y="904" class="small" text-anchor="start">System guide and support</text><rect x="64" y="920" width="128" height="44" fill="white" stroke="#DCE7E4" stroke-width="1" rx="16" ry="16"/><text x="128.0" y="948" class="buttonLight" text-anchor="middle">Open guide</text><rect x="302" y="40" width="1088" height="82" fill="white" stroke="#DCE7E4" stroke-width="1" rx="24" ry="24"/><text x="328" y="48" class="label" text-anchor="start"></text><rect x="328" y="58" width="360" height="48" fill="white" stroke="#DCE7E4" stroke-width="1" rx="16" ry="16"/><circle cx="350" cy="82.0" r="8" fill="none" stroke="#6E5D56" stroke-width="1"/><line x1="356" y1="88.0" x2="360" y2="92.0" stroke="#6E5D56" stroke-width="2" stroke-linecap="round"/><text x="370" y="87.0" class="small" text-anchor="start">Search patients, doctors, appointments</text><rect x="1174" y="66" width="98" height="28" rx="14" ry="14" fill="#EFE6E2" stroke="#DCE7E4" stroke-width="1"/><text x="1223" y="84" class="chip" text-anchor="middle" fill="#0F2340">Live</text><circle cx="1296" cy="81" r="20" fill="url(#gradPeach)" stroke="#DCE7E4" stroke-width="1"/><circle cx="1342" cy="81" r="20" fill="url(#gradLav)" stroke="#DCE7E4" stroke-width="1"/><rect x="1290" y="140" width="100" height="0" fill="none" stroke="none" stroke-width="1" rx="18" ry="18"/><rect x="134" y="0" width="0" height="0" fill="none" rx="18" ry="18"/><rect x="1218" y="58" width="0" height="0" fill="none" rx="18" ry="18"/><rect x="1252" y="58" width="124" height="46" fill="#F7EEE9" stroke="#DCE7E4" stroke-width="1" rx="20" ry="20"/><circle cx="1276" cy="81" r="14" fill="#4A3E38" stroke="#DCE7E4" stroke-width="1"/><text x="1298" y="77" class="body" text-anchor="start">Samuel</text><text x="1298" y="95" class="tiny" text-anchor="start">Admin</text><text x="324" y="172" class="title" text-anchor="start">Doctors</text><text x="324" y="198" class="small" text-anchor="start">Browse doctors, specialities and availability</text><rect x="324" y="226" width="128" height="32" fill="#4A3E38" stroke="#DCE7E4" stroke-width="1" rx="16" ry="16"/><text x="388.0" y="246" class="chip" text-anchor="middle">All doctors</text><rect x="462" y="226" width="118" height="32" fill="#CDB4A8" stroke="#DCE7E4" stroke-width="1" rx="16" ry="16"/><text x="521.0" y="246" class="chip" text-anchor="middle">On duty</text><rect x="590" y="226" width="108" height="32" fill="#F7EEE9" stroke="#DCE7E4" stroke-width="1" rx="16" ry="16"/><text x="644.0" y="246" class="chip" text-anchor="middle">Pediatrics</text><rect x="324" y="284" width="300" height="160" fill="white" stroke="#DCE7E4" stroke-width="1" rx="24" ry="24" filter="url(#shadow)"/><circle cx="372" cy="336" r="28" fill="url(#gradPrimary)" stroke="#DCE7E4" stroke-width="1"/><text x="414" y="330" class="h3" text-anchor="start">Dr. Kato</text><text x="414" y="358" class="small" text-anchor="start">General clinic</text><text x="414" y="384" class="small" text-anchor="start">Room 02</text><rect x="506" y="316" width="98" height="28" rx="14" ry="14" fill="#EFE6E2" stroke="#DCE7E4" stroke-width="1"/><text x="555" y="334" class="chip" text-anchor="middle" fill="#0F2340">Available</text><rect x="350" y="396" width="108" height="44" fill="white" stroke="#DCE7E4" stroke-width="1" rx="16" ry="16"/><text x="404.0" y="424" class="buttonLight" text-anchor="middle">View profile</text><rect x="472" y="396" width="126" height="44" fill="url(#gradPrimary)" stroke="#0F2340" stroke-width="1" rx="16" ry="16" filter="url(#soft)"/><text x="535.0" y="424" class="button" text-anchor="middle">Book slot</text><rect x="678" y="284" width="300" height="160" fill="white" stroke="#DCE7E4" stroke-width="1" rx="24" ry="24" filter="url(#shadow)"/><circle cx="726" cy="336" r="28" fill="url(#gradYellow)" stroke="#DCE7E4" stroke-width="1"/><text x="768" y="330" class="h3" text-anchor="start">Dr. Mugisha</text><text x="768" y="358" class="small" text-anchor="start">Dental clinic</text><text x="768" y="384" class="small" text-anchor="start">Room 04</text><rect x="860" y="316" width="98" height="28" rx="14" ry="14" fill="#D3B8A9" stroke="#DCE7E4" stroke-width="1"/><text x="909" y="334" class="chip" text-anchor="middle" fill="#0F2340">Available</text><rect x="704" y="396" width="108" height="44" fill="white" stroke="#DCE7E4" stroke-width="1" rx="16" ry="16"/><text x="758.0" y="424" class="buttonLight" text-anchor="middle">View profile</text><rect x="826" y="396" width="126" height="44" fill="url(#gradPrimary)" stroke="#0F2340" stroke-width="1" rx="16" ry="16" filter="url(#soft)"/><text x="889.0" y="424" class="button" text-anchor="middle">Book slot</text><rect x="1032" y="284" width="300" height="160" fill="white" stroke="#DCE7E4" stroke-width="1" rx="24" ry="24" filter="url(#shadow)"/><circle cx="1080" cy="336" r="28" fill="url(#gradPeach)" stroke="#DCE7E4" stroke-width="1"/><text x="1122" y="330" class="h3" text-anchor="start">Dr. Nalwoga</text><text x="1122" y="358" class="small" text-anchor="start">Pediatrics</text><text x="1122" y="384" class="small" text-anchor="start">Room 05</text><rect x="1214" y="316" width="98" height="28" rx="14" ry="14" fill="#CDB4A8" stroke="#DCE7E4" stroke-width="1"/><text x="1263" y="334" class="chip" text-anchor="middle" fill="#0F2340">Busy</text><rect x="1058" y="396" width="108" height="44" fill="white" stroke="#DCE7E4" stroke-width="1" rx="16" ry="16"/><text x="1112.0" y="424" class="buttonLight" text-anchor="middle">View profile</text><rect x="1180" y="396" width="126" height="44" fill="url(#gradPeach)" stroke="#DCE7E4" stroke-width="1" rx="16" ry="16"/><text x="1243.0" y="424" class="buttonLight" text-anchor="middle">Book slot</text><rect x="324" y="484" width="300" height="160" fill="white" stroke="#DCE7E4" stroke-width="1" rx="24" ry="24" filter="url(#shadow)"/><circle cx="372" cy="536" r="28" fill="url(#gradPrimary)" stroke="#DCE7E4" stroke-width="1"/><text x="414" y="530" class="h3" text-anchor="start">Dr. Annet</text><text x="414" y="558" class="small" text-anchor="start">Maternity</text><text x="414" y="584" class="small" text-anchor="start">Room 08</text><rect x="506" y="516" width="98" height="28" rx="14" ry="14" fill="#EFE6E2" stroke="#DCE7E4" stroke-width="1"/><text x="555" y="534" class="chip" text-anchor="middle" fill="#0F2340">Available</text><rect x="350" y="596" width="108" height="44" fill="white" stroke="#DCE7E4" stroke-width="1" rx="16" ry="16"/><text x="404.0" y="624" class="buttonLight" text-anchor="middle">View profile</text><rect x="472" y="596" width="126" height="44" fill="url(#gradPrimary)" stroke="#0F2340" stroke-width="1" rx="16" ry="16" filter="url(#soft)"/><text x="535.0" y="624" class="button" text-anchor="middle">Book slot</text><rect x="678" y="484" width="300" height="160" fill="white" stroke="#DCE7E4" stroke-width="1" rx="24" ry="24" filter="url(#shadow)"/><circle cx="726" cy="536" r="28" fill="url(#gradPrimary)" stroke="#DCE7E4" stroke-width="1"/><text x="768" y="530" class="h3" text-anchor="start">Dr. Mubiru</text><text x="768" y="558" class="small" text-anchor="start">Pharmacy</text><text x="768" y="584" class="small" text-anchor="start">Desk 01</text><rect x="860" y="516" width="98" height="28" rx="14" ry="14" fill="#EFE6E2" stroke="#DCE7E4" stroke-width="1"/><text x="909" y="534" class="chip" text-anchor="middle" fill="#0F2340">Available</text><rect x="704" y="596" width="108" height="44" fill="white" stroke="#DCE7E4" stroke-width="1" rx="16" ry="16"/><text x="758.0" y="624" class="buttonLight" text-anchor="middle">View profile</text><rect x="826" y="596" width="126" height="44" fill="url(#gradPrimary)" stroke="#0F2340" stroke-width="1" rx="16" ry="16" filter="url(#soft)"/><text x="889.0" y="624" class="button" text-anchor="middle">Book slot</text><rect x="1032" y="484" width="300" height="160" fill="white" stroke="#DCE7E4" stroke-width="1" rx="24" ry="24" filter="url(#shadow)"/><circle cx="1080" cy="536" r="28" fill="url(#gradYellow)" stroke="#DCE7E4" stroke-width="1"/><text x="1122" y="530" class="h3" text-anchor="start">Dr. Abwooli</text><text x="1122" y="558" class="small" text-anchor="start">Lab review</text><text x="1122" y="584" class="small" text-anchor="start">Room 06</text><rect x="1214" y="516" width="98" height="28" rx="14" ry="14" fill="#D3B8A9" stroke="#DCE7E4" stroke-width="1"/><text x="1263" y="534" class="chip" text-anchor="middle" fill="#0F2340">Available</text><rect x="1058" y="596" width="108" height="44" fill="white" stroke="#DCE7E4" stroke-width="1" rx="16" ry="16"/><text x="1112.0" y="624" class="buttonLight" text-anchor="middle">View profile</text><rect x="1180" y="596" width="126" height="44" fill="url(#gradPrimary)" stroke="#0F2340" stroke-width="1" rx="16" ry="16" filter="url(#soft)"/><text x="1243.0" y="624" class="button" text-anchor="middle">Book slot</text></svg>
