<svg xmlns="http://www.w3.org/2000/svg" width="1440" height="1024" viewBox="0 0 1440 1024">
<style>
    .title { font-family: Inter, Arial, sans-serif; font-size: 30px; font-weight: 800; fill: #25363B; }
    .h2 { font-family: Inter, Arial, sans-serif; font-size: 22px; font-weight: 800; fill: #25363B; }
    .h3 { font-family: Inter, Arial, sans-serif; font-size: 18px; font-weight: 700; fill: #25363B; }
    .label { font-family: Inter, Arial, sans-serif; font-size: 13px; font-weight: 700; fill: #25363B; }
    .body { font-family: Inter, Arial, sans-serif; font-size: 14px; font-weight: 500; fill: #25363B; }
    .small { font-family: Inter, Arial, sans-serif; font-size: 12px; font-weight: 500; fill: #6B7C82; }
    .tiny { font-family: Inter, Arial, sans-serif; font-size: 11px; font-weight: 500; fill: #6B7C82; }
    .chip { font-family: Inter, Arial, sans-serif; font-size: 12px; font-weight: 700; fill: #25363B; }
    .button { font-family: Inter, Arial, sans-serif; font-size: 14px; font-weight: 700; fill: #2D6D67; }
    .buttonLight { font-family: Inter, Arial, sans-serif; font-size: 14px; font-weight: 700; fill: #25363B; }
    .whiteBtn { font-family: Inter, Arial, sans-serif; font-size: 14px; font-weight: 700; fill: white; }
    .num { font-family: Inter, Arial, sans-serif; font-size: 28px; font-weight: 800; fill: #25363B; }
    .center { dominant-baseline: middle; text-anchor: middle; }
</style>
<defs>
    <linearGradient id="gradPrimary" x1="0" y1="0" x2="1" y2="1">
      <stop offset="0%" stop-color="#DBF0EC"/>
      <stop offset="100%" stop-color="#82D1C6"/>
    </linearGradient>
    <linearGradient id="gradPeach" x1="0" y1="0" x2="1" y2="1">
      <stop offset="0%" stop-color="#FCEFE9"/>
      <stop offset="100%" stop-color="#F3D5CA"/>
    </linearGradient>
    <linearGradient id="gradLav" x1="0" y1="0" x2="1" y2="1">
      <stop offset="0%" stop-color="#F6F3FD"/>
      <stop offset="100%" stop-color="#DCD3F7"/>
    </linearGradient>
    <linearGradient id="gradYellow" x1="0" y1="0" x2="1" y2="1">
      <stop offset="0%" stop-color="#FFF8E5"/>
      <stop offset="100%" stop-color="#F1DF9F"/>
    </linearGradient>
    <filter id="shadow" x="-20%" y="-20%" width="140%" height="150%">
      <feDropShadow dx="0" dy="8" stdDeviation="12" flood-color="#B9CCC7" flood-opacity="0.22"/>
    </filter>
    <filter id="soft" x="-20%" y="-20%" width="140%" height="150%">
      <feDropShadow dx="0" dy="3" stdDeviation="6" flood-color="#B9CCC7" flood-opacity="0.16"/>
    </filter>
</defs>
<title>Appointments</title><rect x="0" y="0" width="1440" height="1024" fill="#F7FAFA" rx="0" ry="0"/><rect x="24" y="24" width="1392" height="976" fill="#FFFFFF" stroke="#DCE7E4" stroke-width="1" rx="30" ry="30" filter="url(#shadow)"/><rect x="24" y="24" width="258" height="976" fill="#EEF6F5" stroke="#DCE7E4" stroke-width="1" rx="30" ry="30"/><rect x="40" y="42" width="226" height="86" fill="url(#gradPrimary)" stroke="#DCE7E4" stroke-width="1" rx="24" ry="24"/><circle cx="74" cy="85" r="22" fill="white" stroke="#DCE7E4" stroke-width="1"/><text x="106" y="78" class="h3" text-anchor="start">Green Valley</text><text x="106" y="100" class="small" text-anchor="start">Clinic management system</text><rect x="62" y="158" width="4" height="12" fill="#6B7C82" rx="2" ry="2"/><rect x="69" y="154" width="4" height="16" fill="#6B7C82" rx="2" ry="2"/><rect x="76" y="161" width="4" height="9" fill="#6B7C82" rx="2" ry="2"/><text x="92" y="172" class="body" fill="#6B7C82">Dashboard</text><rect x="44" y="210" width="218" height="44" fill="white" stroke="#DCE7E4" stroke-width="1" rx="16" ry="16"/><rect x="62" y="217" width="18" height="15" fill="none" stroke="#2D6D67" stroke-width="1" rx="4" ry="4"/><line x1="67" y1="214" x2="67" y2="220" stroke="#2D6D67" stroke-width="1" stroke-linecap="round"/><line x1="75" y1="214" x2="75" y2="220" stroke="#2D6D67" stroke-width="1" stroke-linecap="round"/><line x1="62" y1="221" x2="80" y2="221" stroke="#2D6D67" stroke-width="1" stroke-linecap="round"/><text x="92" y="234" class="body" fill="#2D6D67">Appointments</text><rect x="62" y="277" width="16" height="18" fill="none" stroke="#6B7C82" stroke-width="1" rx="4" ry="4"/><line x1="66" y1="283" x2="74" y2="283" stroke="#6B7C82" stroke-width="1" stroke-linecap="round"/><line x1="66" y1="287" x2="74" y2="287" stroke="#6B7C82" stroke-width="1" stroke-linecap="round"/><line x1="66" y1="291" x2="72" y2="291" stroke="#6B7C82" stroke-width="1" stroke-linecap="round"/><text x="92" y="296" class="body" fill="#6B7C82">Patient Records</text><circle cx="68" cy="345" r="4" fill="none" stroke="#6B7C82" stroke-width="1"/><circle cx="76" cy="347" r="3.5" fill="none" stroke="#6B7C82" stroke-width="1"/><line x1="63" y1="354" x2="73" y2="354" stroke="#6B7C82" stroke-width="2" stroke-linecap="round"/><line x1="72" y1="355" x2="80" y2="355" stroke="#6B7C82" stroke-width="2" stroke-linecap="round"/><text x="92" y="358" class="body" fill="#6B7C82">Doctors</text><rect x="62" y="403" width="18" height="15" fill="none" stroke="#6B7C82" stroke-width="1" rx="4" ry="4"/><line x1="67" y1="400" x2="67" y2="406" stroke="#6B7C82" stroke-width="1" stroke-linecap="round"/><line x1="75" y1="400" x2="75" y2="406" stroke="#6B7C82" stroke-width="1" stroke-linecap="round"/><line x1="62" y1="407" x2="80" y2="407" stroke="#6B7C82" stroke-width="1" stroke-linecap="round"/><text x="92" y="420" class="body" fill="#6B7C82">Schedule</text><rect x="62" y="468" width="4" height="12" fill="#6B7C82" rx="2" ry="2"/><rect x="69" y="464" width="4" height="16" fill="#6B7C82" rx="2" ry="2"/><rect x="76" y="471" width="4" height="9" fill="#6B7C82" rx="2" ry="2"/><text x="92" y="482" class="body" fill="#6B7C82">Reports</text><rect x="62" y="525" width="16" height="18" fill="none" stroke="#6B7C82" stroke-width="1" rx="4" ry="4"/><line x1="66" y1="531" x2="74" y2="531" stroke="#6B7C82" stroke-width="1" stroke-linecap="round"/><line x1="66" y1="535" x2="74" y2="535" stroke="#6B7C82" stroke-width="1" stroke-linecap="round"/><line x1="66" y1="539" x2="72" y2="539" stroke="#6B7C82" stroke-width="1" stroke-linecap="round"/><text x="92" y="544" class="body" fill="#6B7C82">Inventory</text><rect x="62" y="587" width="16" height="18" fill="none" stroke="#6B7C82" stroke-width="1" rx="4" ry="4"/><line x1="66" y1="593" x2="74" y2="593" stroke="#6B7C82" stroke-width="1" stroke-linecap="round"/><line x1="66" y1="597" x2="74" y2="597" stroke="#6B7C82" stroke-width="1" stroke-linecap="round"/><line x1="66" y1="601" x2="72" y2="601" stroke="#6B7C82" stroke-width="1" stroke-linecap="round"/><text x="92" y="606" class="body" fill="#6B7C82">Messages</text><rect x="44" y="844" width="218" height="118" fill="url(#gradLav)" stroke="#DCE7E4" stroke-width="1" rx="24" ry="24"/><text x="64" y="880" class="label" text-anchor="start">Need help?</text><text x="64" y="904" class="small" text-anchor="start">System guide and support</text><rect x="64" y="920" width="128" height="44" fill="white" stroke="#DCE7E4" stroke-width="1" rx="16" ry="16"/><text x="128.0" y="948" class="buttonLight" text-anchor="middle">Open guide</text><rect x="302" y="40" width="1088" height="82" fill="white" stroke="#DCE7E4" stroke-width="1" rx="24" ry="24"/><text x="328" y="48" class="label" text-anchor="start"></text><rect x="328" y="58" width="360" height="48" fill="white" stroke="#DCE7E4" stroke-width="1" rx="16" ry="16"/><circle cx="350" cy="82.0" r="8" fill="none" stroke="#6B7C82" stroke-width="1"/><line x1="356" y1="88.0" x2="360" y2="92.0" stroke="#6B7C82" stroke-width="2" stroke-linecap="round"/><text x="370" y="87.0" class="small" text-anchor="start">Search patients, doctors, appointments</text><rect x="1174" y="66" width="98" height="28" rx="14" ry="14" fill="#CDE6D1" stroke="#DCE7E4" stroke-width="1"/><text x="1223" y="84" class="chip" text-anchor="middle" fill="#25363B">Live</text><circle cx="1296" cy="81" r="20" fill="url(#gradPeach)" stroke="#DCE7E4" stroke-width="1"/><circle cx="1342" cy="81" r="20" fill="url(#gradLav)" stroke="#DCE7E4" stroke-width="1"/><rect x="1290" y="140" width="100" height="0" fill="none" stroke="none" stroke-width="1" rx="18" ry="18"/><rect x="134" y="0" width="0" height="0" fill="none" rx="18" ry="18"/><rect x="1218" y="58" width="0" height="0" fill="none" rx="18" ry="18"/><rect x="1252" y="58" width="124" height="46" fill="#F8FCFB" stroke="#DCE7E4" stroke-width="1" rx="20" ry="20"/><circle cx="1276" cy="81" r="14" fill="#DBF0EC" stroke="#DCE7E4" stroke-width="1"/><text x="1298" y="77" class="body" text-anchor="start">Samuel</text><text x="1298" y="95" class="tiny" text-anchor="start">Admin</text><text x="324" y="172" class="title" text-anchor="start">Appointments</text><text x="324" y="198" class="small" text-anchor="start">Review, filter and manage all appointment records</text><rect x="324" y="226" width="74" height="32" fill="#DBF0EC" stroke="#DCE7E4" stroke-width="1" rx="16" ry="16"/><text x="361.0" y="246" class="chip" text-anchor="middle">Today</text><rect x="408" y="226" width="74" height="32" fill="white" stroke="#DCE7E4" stroke-width="1" rx="16" ry="16"/><text x="445.0" y="246" class="chip" text-anchor="middle">Week</text><rect x="492" y="226" width="80" height="32" fill="white" stroke="#DCE7E4" stroke-width="1" rx="16" ry="16"/><text x="532.0" y="246" class="chip" text-anchor="middle">Month</text><rect x="1188" y="222" width="144" height="44" fill="url(#gradPrimary)" stroke="#82D1C6" stroke-width="1" rx="16" ry="16" filter="url(#soft)"/><text x="1260.0" y="250" class="button" text-anchor="middle">Add appointment</text><rect x="324" y="276" width="1032" height="486" fill="white" stroke="#DCE7E4" stroke-width="1" rx="22" ry="22" filter="url(#soft)"/><text x="348" y="312" class="h3" text-anchor="start">Appointment records</text><rect x="344" y="334" width="992" height="42" fill="#F8FCFB" stroke="#DCE7E4" stroke-width="1" rx="14" ry="14"/><text x="358" y="360" class="label" text-anchor="start">Patient</text><line x1="479.7142857142857" y1="334" x2="479.7142857142857" y2="738" stroke="#DCE7E4" stroke-width="1" stroke-linecap="round"/><text x="495.7142857142857" y="360" class="label" text-anchor="start">Date</text><line x1="617.4285714285714" y1="334" x2="617.4285714285714" y2="738" stroke="#DCE7E4" stroke-width="1" stroke-linecap="round"/><text x="633.4285714285714" y="360" class="label" text-anchor="start">Time</text><line x1="755.1428571428571" y1="334" x2="755.1428571428571" y2="738" stroke="#DCE7E4" stroke-width="1" stroke-linecap="round"/><text x="771.1428571428571" y="360" class="label" text-anchor="start">Treatment</text><line x1="892.8571428571429" y1="334" x2="892.8571428571429" y2="738" stroke="#DCE7E4" stroke-width="1" stroke-linecap="round"/><text x="908.8571428571429" y="360" class="label" text-anchor="start">Doctor</text><line x1="1030.5714285714287" y1="334" x2="1030.5714285714287" y2="738" stroke="#DCE7E4" stroke-width="1" stroke-linecap="round"/><text x="1046.5714285714287" y="360" class="label" text-anchor="start">Status</text><line x1="1168.2857142857144" y1="334" x2="1168.2857142857144" y2="738" stroke="#DCE7E4" stroke-width="1" stroke-linecap="round"/><text x="1184.2857142857144" y="360" class="label" text-anchor="start">Action</text><text x="358" y="400" class="small" text-anchor="start">Alice N.</text><text x="495.7142857142857" y="400" class="small" text-anchor="start">21 Jun 2026</text><text x="633.4285714285714" y="400" class="small" text-anchor="start">08:30 AM</text><text x="771.1428571428571" y="400" class="small" text-anchor="start">General</text><text x="908.8571428571429" y="400" class="small" text-anchor="start">Dr. Kato</text><rect x="1046.5714285714287" y="382" width="98" height="28" rx="14" ry="14" fill="#CDE6D1" stroke="#DCE7E4" stroke-width="1"/><text x="1095.5714285714287" y="400" class="chip" text-anchor="middle" fill="#25363B">Confirmed</text><text x="1184.2857142857144" y="400" class="small" text-anchor="start">View</text><line x1="344" y1="420" x2="1336" y2="420" stroke="#DCE7E4" stroke-width="1" stroke-linecap="round"/><text x="358" y="444" class="small" text-anchor="start">Brian O.</text><text x="495.7142857142857" y="444" class="small" text-anchor="start">21 Jun 2026</text><text x="633.4285714285714" y="444" class="small" text-anchor="start">09:00 AM</text><text x="771.1428571428571" y="444" class="small" text-anchor="start">Dental</text><text x="908.8571428571429" y="444" class="small" text-anchor="start">Dr. Mugisha</text><rect x="1046.5714285714287" y="426" width="98" height="28" rx="14" ry="14" fill="#82D1C6" stroke="#DCE7E4" stroke-width="1"/><text x="1095.5714285714287" y="444" class="chip" text-anchor="middle" fill="#2D6D67">Checked in</text><text x="1184.2857142857144" y="444" class="small" text-anchor="start">View</text><line x1="344" y1="464" x2="1336" y2="464" stroke="#DCE7E4" stroke-width="1" stroke-linecap="round"/><text x="358" y="488" class="small" text-anchor="start">Carol T.</text><text x="495.7142857142857" y="488" class="small" text-anchor="start">21 Jun 2026</text><text x="633.4285714285714" y="488" class="small" text-anchor="start">10:00 AM</text><text x="771.1428571428571" y="488" class="small" text-anchor="start">Pediatrics</text><text x="908.8571428571429" y="488" class="small" text-anchor="start">Dr. Nalwoga</text><rect x="1046.5714285714287" y="470" width="98" height="28" rx="14" ry="14" fill="#F1DF9F" stroke="#DCE7E4" stroke-width="1"/><text x="1095.5714285714287" y="488" class="chip" text-anchor="middle" fill="#25363B">Pending</text><text x="1184.2857142857144" y="488" class="small" text-anchor="start">View</text><line x1="344" y1="508" x2="1336" y2="508" stroke="#DCE7E4" stroke-width="1" stroke-linecap="round"/><text x="358" y="532" class="small" text-anchor="start">Eve N.</text><text x="495.7142857142857" y="532" class="small" text-anchor="start">21 Jun 2026</text><text x="633.4285714285714" y="532" class="small" text-anchor="start">10:30 AM</text><text x="771.1428571428571" y="532" class="small" text-anchor="start">General</text><text x="908.8571428571429" y="532" class="small" text-anchor="start">Dr. Kato</text><rect x="1046.5714285714287" y="514" width="98" height="28" rx="14" ry="14" fill="#F1C8C6" stroke="#DCE7E4" stroke-width="1"/><text x="1095.5714285714287" y="532" class="chip" text-anchor="middle" fill="#25363B">Cancelled</text><text x="1184.2857142857144" y="532" class="small" text-anchor="start">View</text><line x1="344" y1="552" x2="1336" y2="552" stroke="#DCE7E4" stroke-width="1" stroke-linecap="round"/><text x="358" y="576" class="small" text-anchor="start">Moses K.</text><text x="495.7142857142857" y="576" class="small" text-anchor="start">21 Jun 2026</text><text x="633.4285714285714" y="576" class="small" text-anchor="start">11:30 AM</text><text x="771.1428571428571" y="576" class="small" text-anchor="start">Lab review</text><text x="908.8571428571429" y="576" class="small" text-anchor="start">Dr. Abwooli</text><rect x="1046.5714285714287" y="558" width="98" height="28" rx="14" ry="14" fill="#CDE6D1" stroke="#DCE7E4" stroke-width="1"/><text x="1095.5714285714287" y="576" class="chip" text-anchor="middle" fill="#25363B">Confirmed</text><text x="1184.2857142857144" y="576" class="small" text-anchor="start">View</text><rect x="324" y="790" width="1032" height="96" fill="url(#gradPeach)" stroke="#DCE7E4" stroke-width="1" rx="22" ry="22" filter="url(#soft)"/><text x="344" y="822" class="label" text-anchor="start">Tip</text><text x="344" y="848" class="small" text-anchor="start">Use the status chips and date tabs to review only what staff must act on right now.</text></svg>