<svg xmlns="http://www.w3.org/2000/svg" width="1440" height="1024" viewBox="0 0 1440 1024">
<style>
    .title { font-family: Inter, Arial, sans-serif; font-size: 30px; font-weight: 800; fill: #25363B; }
    .h2 { font-family: Inter, Arial, sans-serif; font-size: 22px; font-weight: 800; fill: #25363B; }
    .h3 { font-family: Inter, Arial, sans-serif; font-size: 18px; font-weight: 700; fill: #25363B; }
    .label { font-family: Inter, Arial, sans-serif; font-size: 13px; font-weight: 700; fill: #25363B; }
    .body { font-family: Inter, Arial, sans-serif; font-size: 14px; font-weight: 500; fill: #25363B; }
    .small { font-family: Inter, Arial, sans-serif; font-size: 12px; font-weight: 500; fill: #6B7C82; }
    .tiny { font-family: Inter, Arial, sans-serif; font-size: 11px; font-weight: 500; fill: #6B7C82; }
    .chip { font-family: Inter, Arial, sans-serif; font-size: 12px; font-weight: 700; fill: #25363B; }
    .button { font-family: Inter, Arial, sans-serif; font-size: 14px; font-weight: 700; fill: #2D6D67; }
    .buttonLight { font-family: Inter, Arial, sans-serif; font-size: 14px; font-weight: 700; fill: #25363B; }
    .whiteBtn { font-family: Inter, Arial, sans-serif; font-size: 14px; font-weight: 700; fill: white; }
    .num { font-family: Inter, Arial, sans-serif; font-size: 28px; font-weight: 800; fill: #25363B; }
    .center { dominant-baseline: middle; text-anchor: middle; }
</style>
<defs>
    <linearGradient id="gradPrimary" x1="0" y1="0" x2="1" y2="1">
      <stop offset="0%" stop-color="#DBF0EC"/>
      <stop offset="100%" stop-color="#82D1C6"/>
    </linearGradient>
    <linearGradient id="gradPeach" x1="0" y1="0" x2="1" y2="1">
      <stop offset="0%" stop-color="#FCEFE9"/>
      <stop offset="100%" stop-color="#F3D5CA"/>
    </linearGradient>
    <linearGradient id="gradLav" x1="0" y1="0" x2="1" y2="1">
      <stop offset="0%" stop-color="#F6F3FD"/>
      <stop offset="100%" stop-color="#DCD3F7"/>
    </linearGradient>
    <linearGradient id="gradYellow" x1="0" y1="0" x2="1" y2="1">
      <stop offset="0%" stop-color="#FFF8E5"/>
      <stop offset="100%" stop-color="#F1DF9F"/>
    </linearGradient>
    <filter id="shadow" x="-20%" y="-20%" width="140%" height="150%">
      <feDropShadow dx="0" dy="8" stdDeviation="12" flood-color="#B9CCC7" flood-opacity="0.22"/>
    </filter>
    <filter id="soft" x="-20%" y="-20%" width="140%" height="150%">
      <feDropShadow dx="0" dy="3" stdDeviation="6" flood-color="#B9CCC7" flood-opacity="0.16"/>
    </filter>
</defs>
<title>Staff Management</title><rect x="0" y="0" width="1440" height="1024" fill="#F7FAFA" rx="0" ry="0"/><rect x="24" y="24" width="1392" height="976" fill="#FFFFFF" stroke="#DCE7E4" stroke-width="1" rx="30" ry="30" filter="url(#shadow)"/><rect x="24" y="24" width="258" height="976" fill="#EEF6F5" stroke="#DCE7E4" stroke-width="1" rx="30" ry="30"/><rect x="40" y="42" width="226" height="86" fill="url(#gradPrimary)" stroke="#DCE7E4" stroke-width="1" rx="24" ry="24"/><circle cx="74" cy="85" r="22" fill="white" stroke="#DCE7E4" stroke-width="1"/><text x="106" y="78" class="h3" text-anchor="start">Green Valley</text><text x="106" y="100" class="small" text-anchor="start">Clinic management system</text><rect x="62" y="158" width="4" height="12" fill="#6B7C82" rx="2" ry="2"/><rect x="69" y="154" width="4" height="16" fill="#6B7C82" rx="2" ry="2"/><rect x="76" y="161" width="4" height="9" fill="#6B7C82" rx="2" ry="2"/><text x="92" y="172" class="body" fill="#6B7C82">Dashboard</text><rect x="62" y="217" width="18" height="15" fill="none" stroke="#6B7C82" stroke-width="1" rx="4" ry="4"/><line x1="67" y1="214" x2="67" y2="220" stroke="#6B7C82" stroke-width="1" stroke-linecap="round"/><line x1="75" y1="214" x2="75" y2="220" stroke="#6B7C82" stroke-width="1" stroke-linecap="round"/><line x1="62" y1="221" x2="80" y2="221" stroke="#6B7C82" stroke-width="1" stroke-linecap="round"/><text x="92" y="234" class="body" fill="#6B7C82">Appointments</text><rect x="62" y="277" width="16" height="18" fill="none" stroke="#6B7C82" stroke-width="1" rx="4" ry="4"/><line x1="66" y1="283" x2="74" y2="283" stroke="#6B7C82" stroke-width="1" stroke-linecap="round"/><line x1="66" y1="287" x2="74" y2="287" stroke="#6B7C82" stroke-width="1" stroke-linecap="round"/><line x1="66" y1="291" x2="72" y2="291" stroke="#6B7C82" stroke-width="1" stroke-linecap="round"/><text x="92" y="296" class="body" fill="#6B7C82">Patient Records</text><circle cx="68" cy="345" r="4" fill="none" stroke="#6B7C82" stroke-width="1"/><circle cx="76" cy="347" r="3.5" fill="none" stroke="#6B7C82" stroke-width="1"/><line x1="63" y1="354" x2="73" y2="354" stroke="#6B7C82" stroke-width="2" stroke-linecap="round"/><line x1="72" y1="355" x2="80" y2="355" stroke="#6B7C82" stroke-width="2" stroke-linecap="round"/><text x="92" y="358" class="body" fill="#6B7C82">Doctors</text><rect x="62" y="403" width="18" height="15" fill="none" stroke="#6B7C82" stroke-width="1" rx="4" ry="4"/><line x1="67" y1="400" x2="67" y2="406" stroke="#6B7C82" stroke-width="1" stroke-linecap="round"/><line x1="75" y1="400" x2="75" y2="406" stroke="#6B7C82" stroke-width="1" stroke-linecap="round"/><line x1="62" y1="407" x2="80" y2="407" stroke="#6B7C82" stroke-width="1" stroke-linecap="round"/><text x="92" y="420" class="body" fill="#6B7C82">Schedule</text><rect x="62" y="468" width="4" height="12" fill="#6B7C82" rx="2" ry="2"/><rect x="69" y="464" width="4" height="16" fill="#6B7C82" rx="2" ry="2"/><rect x="76" y="471" width="4" height="9" fill="#6B7C82" rx="2" ry="2"/><text x="92" y="482" class="body" fill="#6B7C82">Reports</text><rect x="62" y="525" width="16" height="18" fill="none" stroke="#6B7C82" stroke-width="1" rx="4" ry="4"/><line x1="66" y1="531" x2="74" y2="531" stroke="#6B7C82" stroke-width="1" stroke-linecap="round"/><line x1="66" y1="535" x2="74" y2="535" stroke="#6B7C82" stroke-width="1" stroke-linecap="round"/><line x1="66" y1="539" x2="72" y2="539" stroke="#6B7C82" stroke-width="1" stroke-linecap="round"/><text x="92" y="544" class="body" fill="#6B7C82">Inventory</text><rect x="62" y="587" width="16" height="18" fill="none" stroke="#6B7C82" stroke-width="1" rx="4" ry="4"/><line x1="66" y1="593" x2="74" y2="593" stroke="#6B7C82" stroke-width="1" stroke-linecap="round"/><line x1="66" y1="597" x2="74" y2="597" stroke="#6B7C82" stroke-width="1" stroke-linecap="round"/><line x1="66" y1="601" x2="72" y2="601" stroke="#6B7C82" stroke-width="1" stroke-linecap="round"/><text x="92" y="606" class="body" fill="#6B7C82">Messages</text><rect x="44" y="844" width="218" height="118" fill="url(#gradLav)" stroke="#DCE7E4" stroke-width="1" rx="24" ry="24"/><text x="64" y="880" class="label" text-anchor="start">Need help?</text><text x="64" y="904" class="small" text-anchor="start">System guide and support</text><rect x="64" y="920" width="128" height="44" fill="white" stroke="#DCE7E4" stroke-width="1" rx="16" ry="16"/><text x="128.0" y="948" class="buttonLight" text-anchor="middle">Open guide</text><rect x="302" y="40" width="1088" height="82" fill="white" stroke="#DCE7E4" stroke-width="1" rx="24" ry="24"/><text x="328" y="48" class="label" text-anchor="start"></text><rect x="328" y="58" width="360" height="48" fill="white" stroke="#DCE7E4" stroke-width="1" rx="16" ry="16"/><circle cx="350" cy="82.0" r="8" fill="none" stroke="#6B7C82" stroke-width="1"/><line x1="356" y1="88.0" x2="360" y2="92.0" stroke="#6B7C82" stroke-width="2" stroke-linecap="round"/><text x="370" y="87.0" class="small" text-anchor="start">Search patients, doctors, appointments</text><rect x="1174" y="66" width="98" height="28" rx="14" ry="14" fill="#CDE6D1" stroke="#DCE7E4" stroke-width="1"/><text x="1223" y="84" class="chip" text-anchor="middle" fill="#25363B">Live</text><circle cx="1296" cy="81" r="20" fill="url(#gradPeach)" stroke="#DCE7E4" stroke-width="1"/><circle cx="1342" cy="81" r="20" fill="url(#gradLav)" stroke="#DCE7E4" stroke-width="1"/><rect x="1290" y="140" width="100" height="0" fill="none" stroke="none" stroke-width="1" rx="18" ry="18"/><rect x="134" y="0" width="0" height="0" fill="none" rx="18" ry="18"/><rect x="1218" y="58" width="0" height="0" fill="none" rx="18" ry="18"/><rect x="1252" y="58" width="124" height="46" fill="#F8FCFB" stroke="#DCE7E4" stroke-width="1" rx="20" ry="20"/><circle cx="1276" cy="81" r="14" fill="#DBF0EC" stroke="#DCE7E4" stroke-width="1"/><text x="1298" y="77" class="body" text-anchor="start">Samuel</text><text x="1298" y="95" class="tiny" text-anchor="start">Admin</text><text x="324" y="172" class="title" text-anchor="start">Staff Management</text><text x="324" y="198" class="small" text-anchor="start">Manage team roles, departments and current status</text><rect x="324" y="228" width="210" height="118" fill="url(#gradPrimary)" stroke="#DCE7E4" stroke-width="1" rx="24" ry="24" filter="url(#soft)"/><circle cx="492" cy="262" r="18" fill="white" stroke="#DCE7E4" stroke-width="1"/><text x="350" y="284" class="num" text-anchor="start">12</text><text x="350" y="312" class="body" text-anchor="start">Doctors</text><circle cx="492" cy="262" r="8" fill="#82D1C6"/><rect x="548" y="228" width="210" height="118" fill="url(#gradPeach)" stroke="#DCE7E4" stroke-width="1" rx="24" ry="24" filter="url(#soft)"/><circle cx="716" cy="262" r="18" fill="white" stroke="#DCE7E4" stroke-width="1"/><text x="574" y="284" class="num" text-anchor="start">5</text><text x="574" y="312" class="body" text-anchor="start">Receptionists</text><circle cx="716" cy="262" r="8" fill="#F3D5CA"/><rect x="772" y="228" width="210" height="118" fill="url(#gradLav)" stroke="#DCE7E4" stroke-width="1" rx="24" ry="24" filter="url(#soft)"/><circle cx="940" cy="262" r="18" fill="white" stroke="#DCE7E4" stroke-width="1"/><text x="798" y="284" class="num" text-anchor="start">2</text><text x="798" y="312" class="body" text-anchor="start">IT Admin</text><circle cx="940" cy="262" r="8" fill="#DCD3F7"/><rect x="1168" y="250" width="164" height="44" fill="#2D6D67" stroke="#2D6D67" stroke-width="1" rx="16" ry="16" filter="url(#soft)"/><text x="1250.0" y="278" class="whiteBtn" text-anchor="middle">Add staff member</text><rect x="324" y="378" width="1032" height="450" fill="white" stroke="#DCE7E4" stroke-width="1" rx="22" ry="22" filter="url(#soft)"/><text x="348" y="414" class="h3" text-anchor="start">Team directory</text><rect x="344" y="436" width="992" height="42" fill="#F8FCFB" stroke="#DCE7E4" stroke-width="1" rx="14" ry="14"/><text x="358" y="462" class="label" text-anchor="start">Staff ID</text><line x1="502.66666666666663" y1="436" x2="502.66666666666663" y2="804" stroke="#DCE7E4" stroke-width="1" stroke-linecap="round"/><text x="518.6666666666666" y="462" class="label" text-anchor="start">Name</text><line x1="663.3333333333333" y1="436" x2="663.3333333333333" y2="804" stroke="#DCE7E4" stroke-width="1" stroke-linecap="round"/><text x="679.3333333333333" y="462" class="label" text-anchor="start">Role</text><line x1="823.9999999999999" y1="436" x2="823.9999999999999" y2="804" stroke="#DCE7E4" stroke-width="1" stroke-linecap="round"/><text x="839.9999999999999" y="462" class="label" text-anchor="start">Department</text><line x1="984.6666666666665" y1="436" x2="984.6666666666665" y2="804" stroke="#DCE7E4" stroke-width="1" stroke-linecap="round"/><text x="1000.6666666666665" y="462" class="label" text-anchor="start">Status</text><line x1="1145.3333333333333" y1="436" x2="1145.3333333333333" y2="804" stroke="#DCE7E4" stroke-width="1" stroke-linecap="round"/><text x="1161.3333333333333" y="462" class="label" text-anchor="start">Action</text><text x="358" y="502" class="small" text-anchor="start">GV-01</text><text x="518.6666666666666" y="502" class="small" text-anchor="start">Dr. Kato</text><text x="679.3333333333333" y="502" class="small" text-anchor="start">Doctor</text><text x="839.9999999999999" y="502" class="small" text-anchor="start">General</text><rect x="1000.6666666666665" y="484" width="98" height="28" rx="14" ry="14" fill="#CDE6D1" stroke="#DCE7E4" stroke-width="1"/><text x="1049.6666666666665" y="502" class="chip" text-anchor="middle" fill="#25363B">Active</text><text x="1161.3333333333333" y="502" class="small" text-anchor="start">Edit</text><line x1="344" y1="522" x2="1336" y2="522" stroke="#DCE7E4" stroke-width="1" stroke-linecap="round"/><text x="358" y="546" class="small" text-anchor="start">GV-02</text><text x="518.6666666666666" y="546" class="small" text-anchor="start">Dr. Mugisha</text><text x="679.3333333333333" y="546" class="small" text-anchor="start">Doctor</text><text x="839.9999999999999" y="546" class="small" text-anchor="start">Dental</text><rect x="1000.6666666666665" y="528" width="98" height="28" rx="14" ry="14" fill="#CDE6D1" stroke="#DCE7E4" stroke-width="1"/><text x="1049.6666666666665" y="546" class="chip" text-anchor="middle" fill="#25363B">Active</text><text x="1161.3333333333333" y="546" class="small" text-anchor="start">Edit</text><line x1="344" y1="566" x2="1336" y2="566" stroke="#DCE7E4" stroke-width="1" stroke-linecap="round"/><text x="358" y="590" class="small" text-anchor="start">GV-03</text><text x="518.6666666666666" y="590" class="small" text-anchor="start">Nalwoga</text><text x="679.3333333333333" y="590" class="small" text-anchor="start">Doctor</text><text x="839.9999999999999" y="590" class="small" text-anchor="start">Pediatrics</text><rect x="1000.6666666666665" y="572" width="98" height="28" rx="14" ry="14" fill="#F1DF9F" stroke="#DCE7E4" stroke-width="1"/><text x="1049.6666666666665" y="590" class="chip" text-anchor="middle" fill="#25363B">On leave</text><text x="1161.3333333333333" y="590" class="small" text-anchor="start">Edit</text><line x1="344" y1="610" x2="1336" y2="610" stroke="#DCE7E4" stroke-width="1" stroke-linecap="round"/><text x="358" y="634" class="small" text-anchor="start">GV-07</text><text x="518.6666666666666" y="634" class="small" text-anchor="start">Ritah</text><text x="679.3333333333333" y="634" class="small" text-anchor="start">Receptionist</text><text x="839.9999999999999" y="634" class="small" text-anchor="start">Front desk</text><rect x="1000.6666666666665" y="616" width="98" height="28" rx="14" ry="14" fill="#CDE6D1" stroke="#DCE7E4" stroke-width="1"/><text x="1049.6666666666665" y="634" class="chip" text-anchor="middle" fill="#25363B">Active</text><text x="1161.3333333333333" y="634" class="small" text-anchor="start">Edit</text><line x1="344" y1="654" x2="1336" y2="654" stroke="#DCE7E4" stroke-width="1" stroke-linecap="round"/><text x="358" y="678" class="small" text-anchor="start">GV-10</text><text x="518.6666666666666" y="678" class="small" text-anchor="start">Peter</text><text x="679.3333333333333" y="678" class="small" text-anchor="start">IT Admin</text><text x="839.9999999999999" y="678" class="small" text-anchor="start">Systems</text><rect x="1000.6666666666665" y="660" width="98" height="28" rx="14" ry="14" fill="#F1C8C6" stroke="#DCE7E4" stroke-width="1"/><text x="1049.6666666666665" y="678" class="chip" text-anchor="middle" fill="#25363B">Limited</text><text x="1161.3333333333333" y="678" class="small" text-anchor="start">Edit</text></svg>