<svg xmlns="http://www.w3.org/2000/svg" width="1440" height="1024" viewBox="0 0 1440 1024">
<style>
    .title { font-family: Inter, Arial, sans-serif; font-size: 30px; font-weight: 800; fill: #25363B; }
    .h2 { font-family: Inter, Arial, sans-serif; font-size: 22px; font-weight: 800; fill: #25363B; }
    .h3 { font-family: Inter, Arial, sans-serif; font-size: 18px; font-weight: 700; fill: #25363B; }
    .label { font-family: Inter, Arial, sans-serif; font-size: 13px; font-weight: 700; fill: #25363B; }
    .body { font-family: Inter, Arial, sans-serif; font-size: 14px; font-weight: 500; fill: #25363B; }
    .small { font-family: Inter, Arial, sans-serif; font-size: 12px; font-weight: 500; fill: #6B7C82; }
    .tiny { font-family: Inter, Arial, sans-serif; font-size: 11px; font-weight: 500; fill: #6B7C82; }
    .chip { font-family: Inter, Arial, sans-serif; font-size: 12px; font-weight: 700; fill: #25363B; }
    .button { font-family: Inter, Arial, sans-serif; font-size: 14px; font-weight: 700; fill: #2D6D67; }
    .buttonLight { font-family: Inter, Arial, sans-serif; font-size: 14px; font-weight: 700; fill: #25363B; }
    .whiteBtn { font-family: Inter, Arial, sans-serif; font-size: 14px; font-weight: 700; fill: white; }
    .num { font-family: Inter, Arial, sans-serif; font-size: 28px; font-weight: 800; fill: #25363B; }
    .center { dominant-baseline: middle; text-anchor: middle; }
</style>
<defs>
    <linearGradient id="gradPrimary" x1="0" y1="0" x2="1" y2="1">
      <stop offset="0%" stop-color="#DBF0EC"/>
      <stop offset="100%" stop-color="#82D1C6"/>
    </linearGradient>
    <linearGradient id="gradPeach" x1="0" y1="0" x2="1" y2="1">
      <stop offset="0%" stop-color="#FCEFE9"/>
      <stop offset="100%" stop-color="#F3D5CA"/>
    </linearGradient>
    <linearGradient id="gradLav" x1="0" y1="0" x2="1" y2="1">
      <stop offset="0%" stop-color="#F6F3FD"/>
      <stop offset="100%" stop-color="#DCD3F7"/>
    </linearGradient>
    <linearGradient id="gradYellow" x1="0" y1="0" x2="1" y2="1">
      <stop offset="0%" stop-color="#FFF8E5"/>
      <stop offset="100%" stop-color="#F1DF9F"/>
    </linearGradient>
    <filter id="shadow" x="-20%" y="-20%" width="140%" height="150%">
      <feDropShadow dx="0" dy="8" stdDeviation="12" flood-color="#B9CCC7" flood-opacity="0.22"/>
    </filter>
    <filter id="soft" x="-20%" y="-20%" width="140%" height="150%">
      <feDropShadow dx="0" dy="3" stdDeviation="6" flood-color="#B9CCC7" flood-opacity="0.16"/>
    </filter>
</defs>
<title>Doctor Schedule Overview</title><rect x="0" y="0" width="1440" height="1024" fill="#F7FAFA" rx="0" ry="0"/><rect x="24" y="24" width="1392" height="976" fill="#FFFFFF" stroke="#DCE7E4" stroke-width="1" rx="30" ry="30" filter="url(#shadow)"/><rect x="24" y="24" width="258" height="976" fill="#EEF6F5" stroke="#DCE7E4" stroke-width="1" rx="30" ry="30"/><rect x="40" y="42" width="226" height="86" fill="url(#gradPrimary)" stroke="#DCE7E4" stroke-width="1" rx="24" ry="24"/><circle cx="74" cy="85" r="22" fill="white" stroke="#DCE7E4" stroke-width="1"/><text x="106" y="78" class="h3" text-anchor="start">Green Valley</text><text x="106" y="100" class="small" text-anchor="start">Clinic management system</text><rect x="62" y="158" width="4" height="12" fill="#6B7C82" rx="2" ry="2"/><rect x="69" y="154" width="4" height="16" fill="#6B7C82" rx="2" ry="2"/><rect x="76" y="161" width="4" height="9" fill="#6B7C82" rx="2" ry="2"/><text x="92" y="172" class="body" fill="#6B7C82">Dashboard</text><rect x="62" y="217" width="18" height="15" fill="none" stroke="#6B7C82" stroke-width="1" rx="4" ry="4"/><line x1="67" y1="214" x2="67" y2="220" stroke="#6B7C82" stroke-width="1" stroke-linecap="round"/><line x1="75" y1="214" x2="75" y2="220" stroke="#6B7C82" stroke-width="1" stroke-linecap="round"/><line x1="62" y1="221" x2="80" y2="221" stroke="#6B7C82" stroke-width="1" stroke-linecap="round"/><text x="92" y="234" class="body" fill="#6B7C82">Appointments</text><rect x="62" y="277" width="16" height="18" fill="none" stroke="#6B7C82" stroke-width="1" rx="4" ry="4"/><line x1="66" y1="283" x2="74" y2="283" stroke="#6B7C82" stroke-width="1" stroke-linecap="round"/><line x1="66" y1="287" x2="74" y2="287" stroke="#6B7C82" stroke-width="1" stroke-linecap="round"/><line x1="66" y1="291" x2="72" y2="291" stroke="#6B7C82" stroke-width="1" stroke-linecap="round"/><text x="92" y="296" class="body" fill="#6B7C82">Patient Records</text><circle cx="68" cy="345" r="4" fill="none" stroke="#6B7C82" stroke-width="1"/><circle cx="76" cy="347" r="3.5" fill="none" stroke="#6B7C82" stroke-width="1"/><line x1="63" y1="354" x2="73" y2="354" stroke="#6B7C82" stroke-width="2" stroke-linecap="round"/><line x1="72" y1="355" x2="80" y2="355" stroke="#6B7C82" stroke-width="2" stroke-linecap="round"/><text x="92" y="358" class="body" fill="#6B7C82">Doctors</text><rect x="44" y="396" width="218" height="44" fill="white" stroke="#DCE7E4" stroke-width="1" rx="16" ry="16"/><rect x="62" y="403" width="18" height="15" fill="none" stroke="#2D6D67" stroke-width="1" rx="4" ry="4"/><line x1="67" y1="400" x2="67" y2="406" stroke="#2D6D67" stroke-width="1" stroke-linecap="round"/><line x1="75" y1="400" x2="75" y2="406" stroke="#2D6D67" stroke-width="1" stroke-linecap="round"/><line x1="62" y1="407" x2="80" y2="407" stroke="#2D6D67" stroke-width="1" stroke-linecap="round"/><text x="92" y="420" class="body" fill="#2D6D67">Schedule</text><rect x="62" y="468" width="4" height="12" fill="#6B7C82" rx="2" ry="2"/><rect x="69" y="464" width="4" height="16" fill="#6B7C82" rx="2" ry="2"/><rect x="76" y="471" width="4" height="9" fill="#6B7C82" rx="2" ry="2"/><text x="92" y="482" class="body" fill="#6B7C82">Reports</text><rect x="62" y="525" width="16" height="18" fill="none" stroke="#6B7C82" stroke-width="1" rx="4" ry="4"/><line x1="66" y1="531" x2="74" y2="531" stroke="#6B7C82" stroke-width="1" stroke-linecap="round"/><line x1="66" y1="535" x2="74" y2="535" stroke="#6B7C82" stroke-width="1" stroke-linecap="round"/><line x1="66" y1="539" x2="72" y2="539" stroke="#6B7C82" stroke-width="1" stroke-linecap="round"/><text x="92" y="544" class="body" fill="#6B7C82">Inventory</text><rect x="62" y="587" width="16" height="18" fill="none" stroke="#6B7C82" stroke-width="1" rx="4" ry="4"/><line x1="66" y1="593" x2="74" y2="593" stroke="#6B7C82" stroke-width="1" stroke-linecap="round"/><line x1="66" y1="597" x2="74" y2="597" stroke="#6B7C82" stroke-width="1" stroke-linecap="round"/><line x1="66" y1="601" x2="72" y2="601" stroke="#6B7C82" stroke-width="1" stroke-linecap="round"/><text x="92" y="606" class="body" fill="#6B7C82">Messages</text><rect x="44" y="844" width="218" height="118" fill="url(#gradLav)" stroke="#DCE7E4" stroke-width="1" rx="24" ry="24"/><text x="64" y="880" class="label" text-anchor="start">Need help?</text><text x="64" y="904" class="small" text-anchor="start">System guide and support</text><rect x="64" y="920" width="128" height="44" fill="white" stroke="#DCE7E4" stroke-width="1" rx="16" ry="16"/><text x="128.0" y="948" class="buttonLight" text-anchor="middle">Open guide</text><rect x="302" y="40" width="1088" height="82" fill="white" stroke="#DCE7E4" stroke-width="1" rx="24" ry="24"/><text x="328" y="48" class="label" text-anchor="start"></text><rect x="328" y="58" width="360" height="48" fill="white" stroke="#DCE7E4" stroke-width="1" rx="16" ry="16"/><circle cx="350" cy="82.0" r="8" fill="none" stroke="#6B7C82" stroke-width="1"/><line x1="356" y1="88.0" x2="360" y2="92.0" stroke="#6B7C82" stroke-width="2" stroke-linecap="round"/><text x="370" y="87.0" class="small" text-anchor="start">Search patients, doctors, appointments</text><rect x="1174" y="66" width="98" height="28" rx="14" ry="14" fill="#CDE6D1" stroke="#DCE7E4" stroke-width="1"/><text x="1223" y="84" class="chip" text-anchor="middle" fill="#25363B">Live</text><circle cx="1296" cy="81" r="20" fill="url(#gradPeach)" stroke="#DCE7E4" stroke-width="1"/><circle cx="1342" cy="81" r="20" fill="url(#gradLav)" stroke="#DCE7E4" stroke-width="1"/><rect x="1290" y="140" width="100" height="0" fill="none" stroke="none" stroke-width="1" rx="18" ry="18"/><rect x="134" y="0" width="0" height="0" fill="none" rx="18" ry="18"/><rect x="1218" y="58" width="0" height="0" fill="none" rx="18" ry="18"/><rect x="1252" y="58" width="124" height="46" fill="#F8FCFB" stroke="#DCE7E4" stroke-width="1" rx="20" ry="20"/><circle cx="1276" cy="81" r="14" fill="#DBF0EC" stroke="#DCE7E4" stroke-width="1"/><text x="1298" y="77" class="body" text-anchor="start">Samuel</text><text x="1298" y="95" class="tiny" text-anchor="start">Admin</text><text x="324" y="172" class="title" text-anchor="start">Doctor Schedule Overview</text><text x="324" y="198" class="small" text-anchor="start">Availability, selected day schedule and planning widgets</text><rect x="324" y="228" width="526" height="552" fill="white" stroke="#DCE7E4" stroke-width="1" rx="24" ry="24" filter="url(#shadow)"/><text x="352" y="268" class="h3" text-anchor="start">Doctor&#x27;s schedule</text><rect x="352" y="320" width="470" height="72" fill="#F8FCFB" stroke="#DCE7E4" stroke-width="1" rx="18" ry="18"/><circle cx="388" cy="356" r="18" fill="url(#gradPrimary)" stroke="#DCE7E4" stroke-width="1"/><text x="420" y="350" class="body" text-anchor="start">Dr. Kato</text><text x="420" y="372" class="tiny" text-anchor="start">Schedule block</text><rect x="692" y="342" width="98" height="28" rx="14" ry="14" fill="#CDE6D1" stroke="#DCE7E4" stroke-width="1"/><text x="741" y="360" class="chip" text-anchor="middle" fill="#25363B">Available</text><rect x="352" y="408" width="470" height="72" fill="#F8FCFB" stroke="#DCE7E4" stroke-width="1" rx="18" ry="18"/><circle cx="388" cy="444" r="18" fill="url(#gradPrimary)" stroke="#DCE7E4" stroke-width="1"/><text x="420" y="438" class="body" text-anchor="start">Dr. Mugisha</text><text x="420" y="460" class="tiny" text-anchor="start">Schedule block</text><rect x="692" y="430" width="98" height="28" rx="14" ry="14" fill="#F1DF9F" stroke="#DCE7E4" stroke-width="1"/><text x="741" y="448" class="chip" text-anchor="middle" fill="#25363B">On duty</text><rect x="352" y="496" width="470" height="72" fill="#F8FCFB" stroke="#DCE7E4" stroke-width="1" rx="18" ry="18"/><circle cx="388" cy="532" r="18" fill="url(#gradPrimary)" stroke="#DCE7E4" stroke-width="1"/><text x="420" y="526" class="body" text-anchor="start">Dr. Nalwoga</text><text x="420" y="548" class="tiny" text-anchor="start">Schedule block</text><rect x="692" y="518" width="98" height="28" rx="14" ry="14" fill="#F1C8C6" stroke="#DCE7E4" stroke-width="1"/><text x="741" y="536" class="chip" text-anchor="middle" fill="#25363B">Busy</text><rect x="352" y="584" width="470" height="72" fill="#F8FCFB" stroke="#DCE7E4" stroke-width="1" rx="18" ry="18"/><circle cx="388" cy="620" r="18" fill="url(#gradPrimary)" stroke="#DCE7E4" stroke-width="1"/><text x="420" y="614" class="body" text-anchor="start">Dr. Abwooli</text><text x="420" y="636" class="tiny" text-anchor="start">Schedule block</text><rect x="692" y="606" width="98" height="28" rx="14" ry="14" fill="#CDE6D1" stroke="#DCE7E4" stroke-width="1"/><text x="741" y="624" class="chip" text-anchor="middle" fill="#25363B">Available</text><rect x="876" y="228" width="230" height="260" fill="white" stroke="#DCE7E4" stroke-width="1" rx="24" ry="24" filter="url(#shadow)"/><text x="904" y="268" class="h3" text-anchor="start">Selected day</text><text x="904" y="310" class="body" text-anchor="start">Tuesday · 1 Apr</text><text x="904" y="340" class="num" text-anchor="start">08:00 AM</text><text x="904" y="382" class="small" text-anchor="start">Consultation room 02</text><rect x="1130" y="228" width="226" height="260" fill="white" stroke="#DCE7E4" stroke-width="1" rx="24" ry="24" filter="url(#shadow)"/><text x="1158" y="268" class="h3" text-anchor="start">Visit schedule</text><text x="1158" y="316" class="small" text-anchor="start">• General consultation</text><text x="1158" y="350" class="small" text-anchor="start">• Lab review</text><text x="1158" y="384" class="small" text-anchor="start">• Pediatric session</text><text x="1158" y="418" class="small" text-anchor="start">• Follow-up visits</text><rect x="876" y="512" width="224" height="268" fill="white" stroke="#DCE7E4" stroke-width="1" rx="22" ry="22" filter="url(#soft)"/><text x="900" y="548" class="h3" text-anchor="start">Quick report</text><rect x="898" y="570" width="180" height="188" fill="#F8FCFB" stroke="#DCE7E4" stroke-width="1" rx="18" ry="18"/><rect x="938" y="650" width="32" height="82" fill="url(#gradPrimary)" stroke="#DCE7E4" stroke-width="1" rx="12" ry="12"/><text x="954" y="752" class="tiny" text-anchor="middle">Mon</text><rect x="1006" y="616" width="32" height="116" fill="url(#gradPeach)" stroke="#DCE7E4" stroke-width="1" rx="12" ry="12"/><text x="1022" y="752" class="tiny" text-anchor="middle">Tue</text><rect x="1074" y="662" width="32" height="70" fill="url(#gradLav)" stroke="#DCE7E4" stroke-width="1" rx="12" ry="12"/><text x="1090" y="752" class="tiny" text-anchor="middle">Wed</text><rect x="1142" y="592" width="32" height="140" fill="url(#gradPrimary)" stroke="#DCE7E4" stroke-width="1" rx="12" ry="12"/><text x="1158" y="752" class="tiny" text-anchor="middle">Thu</text><rect x="1210" y="630" width="32" height="102" fill="url(#gradYellow)" stroke="#DCE7E4" stroke-width="1" rx="12" ry="12"/><text x="1226" y="752" class="tiny" text-anchor="middle">Fri</text><rect x="1124" y="512" width="232" height="268" fill="url(#gradPeach)" stroke="#DCE7E4" stroke-width="1" rx="22" ry="22" filter="url(#soft)"/><text x="1144" y="544" class="label" text-anchor="start">Tomorrow focus</text><text x="1144" y="570" class="small" text-anchor="start">• 7 booked appointments</text><text x="1144" y="594" class="small" text-anchor="start">• 1 room conflict to resolve</text><text x="1144" y="618" class="small" text-anchor="start">• Pharmacy stock refill</text></svg>